<svg viewBox="0 0 412 407" fill="none" xmlns="http://www.w3.org/2000/svg">
  <g filter="url(#filter0_d)">
    <path
      d="M50.3046 124.17C60.2787 124.17 68.3642 116.085 68.3642 106.111C68.3642 96.1366 60.2787 88.0511 50.3046 88.0511C40.3306 88.0511 32.2451 96.1366 32.2451 106.111C32.2451 116.085 40.3306 124.17 50.3046 124.17Z"
      fill="#C7CFDE"/>
    <path
      d="M41.3154 171.534C44.9743 170.118 46.7923 166.003 45.3759 162.344C43.9595 158.685 39.8452 156.868 36.1863 158.284C32.5274 159.7 30.7094 163.815 32.1258 167.473C33.5421 171.132 37.6565 172.95 41.3154 171.534Z"
      fill="#C7CFDE"/>
    <path
      d="M277.708 348.462C278.573 344.607 276.149 340.78 272.294 339.914C268.438 339.049 264.611 341.472 263.745 345.328C262.88 349.184 265.304 353.011 269.159 353.876C273.015 354.742 276.842 352.318 277.708 348.462Z"
      fill="#C7CFDE"/>
    <path
      d="M84.0548 88.4098C78.0238 81.478 77.7986 71.9019 81.4522 64.5947C83.3088 60.9399 85.9803 57.7604 89.2605 55.3017C92.5407 52.843 96.342 51.1708 100.371 50.4141C107.536 49.1379 115.528 50.7144 121.7 46.8606C129.141 42.206 130.376 32.0711 134.813 24.5053C137.708 19.7663 141.937 15.9871 146.97 13.6411C152.004 11.2951 157.617 10.4868 163.108 11.3174C179.207 14.0284 190.01 31.7374 188.2 47.9617C186.39 64.186 174.319 77.9912 159.838 85.4235C145.357 92.8558 126.005 97.6188 109.689 97.9358C100.246 98.1609 91.0793 94.7439 84.0881 88.3931"
      fill="#C7CFDE"/>
    <path
      d="M299.076 329.764C302.555 335.828 310.704 340.941 315.543 341.992L315.434 341.942C324.61 344.987 334.787 344.528 343.987 341.509C354.681 338.013 364.099 331.315 372.215 323.524C383.769 312.438 393.203 298.425 395.789 282.651C398.375 266.877 393.053 249.209 380.082 239.809C375.36 236.388 369.876 234.169 364.105 233.342C358.333 232.514 352.447 233.104 346.954 235.06C341.462 237.016 336.528 240.279 332.578 244.568C328.628 248.857 325.782 254.043 324.285 259.678C321.665 269.554 323.167 280.69 317.87 289.424C313.048 297.365 303.506 301.619 298.976 309.727C297.303 312.805 296.435 316.255 296.453 319.758C296.47 323.261 297.373 326.703 299.076 329.764Z"
      fill="#C7CFDE"/>
    <path
      d="M382.202 189.854C392.031 185.849 396.753 174.633 392.748 164.804C388.742 154.974 377.527 150.253 367.697 154.258C357.867 158.264 353.146 169.479 357.151 179.309C361.157 189.138 372.372 193.86 382.202 189.854Z"
      fill="#C7CFDE"/>
    <path
      d="M74.4537 343.244C75.4815 343.671 76.4133 344.301 77.1941 345.094C77.9748 345.888 78.5888 346.83 78.9999 347.865C79.7986 349.944 80.1152 352.177 79.9258 354.396C79.6755 358.692 77.49 363.121 75.0626 366.675C71.3006 363.739 70.1828 358.333 69.7824 355.531C69.1568 351.126 70.6916 342.785 74.4537 343.244Z"
      fill="#30569F"/>
    <path
      d="M79.617 373.482C79.3075 372.276 79.3219 371.01 79.6588 369.812C79.9957 368.614 80.6431 367.526 81.5356 366.658C82.4442 365.813 83.5115 365.157 84.6756 364.727C85.8397 364.298 87.0776 364.103 88.3173 364.156C88.8902 364.117 89.4647 364.203 90.0006 364.409C90.5366 364.615 91.0211 364.936 91.4204 365.349C91.7245 365.792 91.9049 366.309 91.943 366.846C91.9811 367.382 91.8756 367.919 91.6373 368.402C91.1406 369.36 90.4014 370.171 89.4935 370.754C86.4905 372.873 83.1956 374.374 79.617 373.515"
      fill="#30569F"/>
    <path
      d="M75.7299 386.803C75.7275 386.506 75.7554 386.21 75.8133 385.919C75.8884 385.301 75.9885 384.492 76.1136 383.533C76.3717 380.874 77.0591 378.273 78.1489 375.834C79.2821 373.393 81.0476 371.299 83.2623 369.77C83.9359 369.323 84.6579 368.953 85.4145 368.668C85.6814 368.568 85.9066 368.518 86.0484 368.477C86.1203 368.448 86.1964 368.431 86.2737 368.427C85.2611 368.839 84.2916 369.351 83.3791 369.953C81.2465 371.508 79.542 373.577 78.4242 375.967C77.3541 378.383 76.6485 380.944 76.3305 383.566C76.172 384.567 76.0385 385.377 75.9301 385.935C75.8877 386.23 75.8207 386.52 75.7299 386.803Z"
      fill="#263238"/>
    <path
      d="M73.853 349.7C73.8815 349.823 73.901 349.949 73.9114 350.075C73.9448 350.359 73.9865 350.726 74.0365 351.176C74.145 352.127 74.2701 353.504 74.4203 355.205C74.7206 358.617 75.0626 363.338 75.3295 368.552C75.5964 373.765 75.7132 378.495 75.7633 381.898C75.7633 383.608 75.7633 384.993 75.7633 385.944C75.7633 386.403 75.7633 386.778 75.7633 387.053C75.7739 387.181 75.7739 387.309 75.7633 387.437C75.7372 387.311 75.7232 387.182 75.7216 387.053V385.952C75.7216 384.951 75.6548 383.583 75.6048 381.898C75.4963 378.478 75.3378 373.757 75.0709 368.552C74.804 363.347 74.5037 358.625 74.2367 355.205C74.12 353.537 74.0199 352.161 73.9531 351.168C73.9531 350.717 73.9031 350.334 73.8864 350.067C73.8552 349.947 73.8439 349.823 73.853 349.7Z"
      fill="#263238"/>
    <path
      d="M73.5527 376.418C72.9785 373.858 71.8028 371.472 70.123 369.457C68.4432 367.443 66.3077 365.857 63.8932 364.831C62.6586 364.323 61.0737 363.997 60.1311 364.973C59.1885 365.949 59.5055 367.476 60.056 368.727C61.2513 371.243 63.1643 373.349 65.5541 374.78C67.9439 376.211 70.7038 376.902 73.486 376.768"
      fill="#30569F"/>
    <path
      d="M64.6772 368.844C64.9452 368.91 65.2053 369.005 65.453 369.127C65.7033 369.236 66.0036 369.361 66.3372 369.544C66.6709 369.728 67.0713 369.903 67.4717 370.17C67.9227 370.439 68.3598 370.732 68.7813 371.046C69.2677 371.402 69.7354 371.784 70.1827 372.188C71.2057 373.126 72.1207 374.175 72.9104 375.317C73.673 376.471 74.3026 377.708 74.7873 379.003C74.9909 379.572 75.1636 380.151 75.3044 380.738C75.4344 381.247 75.5347 381.762 75.6047 382.282C75.671 382.707 75.7128 383.136 75.7299 383.566C75.7537 383.891 75.7537 384.217 75.7299 384.542C75.7531 384.82 75.7531 385.099 75.7299 385.376C75.6548 385.376 75.7299 384.184 75.4045 382.315C75.3128 381.848 75.2294 381.331 75.0709 380.797C74.92 380.232 74.739 379.675 74.5287 379.129C74.0405 377.861 73.4169 376.65 72.6685 375.517C71.8957 374.4 71.0065 373.368 70.0159 372.439C69.5821 372.035 69.1283 371.654 68.6562 371.296C68.2499 370.973 67.8267 370.672 67.3883 370.395C65.77 369.336 64.6772 368.902 64.6772 368.844Z"
      fill="#263238"/>
    <path
      d="M69.2485 173.802C69.2485 173.802 55.6183 54.2512 178.282 51.5652C300.945 48.8793 287.965 172.459 282.768 189.251C277.572 206.042 252.897 254.656 250.303 276.837C247.709 299.017 251.137 365.641 252.805 387.42H126.53L127.006 321.581C127.006 321.581 80.9267 328.971 72.4933 308.151C64.06 287.33 64.6773 247.007 64.6773 247.007C64.6773 247.007 39.3688 247.007 37.4169 242.978C35.465 238.949 69.2485 173.802 69.2485 173.802Z"
      fill="#30569F"/>
    <path
      d="M69.2485 173.802C69.2485 173.802 55.6183 54.2512 178.282 51.5652C300.945 48.8793 287.965 172.459 282.768 189.251C277.572 206.042 252.897 254.656 250.303 276.837C247.709 299.017 251.137 365.641 252.805 387.42H126.53L127.006 321.581C127.006 321.581 80.9267 328.971 72.4933 308.151C64.06 287.33 64.6773 247.007 64.6773 247.007C64.6773 247.007 39.3688 247.007 37.4169 242.978C35.465 238.949 69.2485 173.802 69.2485 173.802Z"
      fill="#30569F"/>
    <g opacity="0.7">
      <path opacity="0.7"
            d="M69.2485 173.802C69.2485 173.802 55.6183 54.2512 178.282 51.5652C300.945 48.8793 287.965 172.459 282.768 189.251C277.572 206.042 252.897 254.656 250.303 276.837C247.709 299.017 251.137 365.641 252.805 387.42H126.53L127.006 321.581C127.006 321.581 80.9267 328.971 72.4933 308.151C64.06 287.33 64.6773 247.007 64.6773 247.007C64.6773 247.007 39.3688 247.007 37.4169 242.978C35.465 238.949 69.2485 173.802 69.2485 173.802Z"
            fill="white"/>
    </g>
    <path
      d="M133.546 100.346C126.522 98.5947 117.246 94.9161 109.697 101.673C105.843 105.126 103.683 112.759 103.424 118.005C99.6553 118.276 95.995 119.387 92.7114 121.256C89.4277 123.125 86.6039 125.706 84.4469 128.808C82.1372 131.952 80.887 135.75 80.8766 139.652C81.0101 143.539 82.9704 147.476 86.3154 149.32C84.4971 152.02 83.446 155.163 83.2741 158.414C83.1022 161.666 83.816 164.902 85.3394 167.779C86.906 170.58 89.23 172.882 92.045 174.422C94.86 175.963 98.052 176.678 101.255 176.488C100.755 179.85 101.103 183.285 102.269 186.478C103.434 189.672 105.38 192.523 107.928 194.773C110.483 196.928 113.555 198.38 116.842 198.987C120.128 199.594 123.516 199.335 126.672 198.234C132.753 207.235 146.692 209.203 154.9 202.222C155.926 201.387 156.944 200.328 158.237 200.094C159.387 200.011 160.539 200.236 161.573 200.745C167.062 202.856 172.926 204.691 178.707 203.731C184.488 202.772 190.11 198.218 190.51 192.22C196.829 195.662 203.902 197.484 211.097 197.525C219.322 197.525 228.907 193.797 230.658 185.564C233.089 187.452 236.01 188.602 239.076 188.879C242.141 189.155 245.221 188.546 247.951 187.123C250.668 185.59 252.909 183.334 254.424 180.606C255.939 177.878 256.669 174.784 256.534 171.667C263.508 173.018 269.447 165.894 271.307 158.879C273.117 152.056 272.617 144.398 268.93 138.426C265.243 132.453 258.127 128.574 251.337 129.834C253.12 127.192 254.173 124.126 254.392 120.946C254.61 117.766 253.985 114.585 252.58 111.724C251.135 108.926 248.952 106.577 246.267 104.932C243.582 103.287 240.497 102.407 237.348 102.39C236.58 99.9084 235.22 97.6509 233.384 95.8125C231.549 93.9741 229.294 92.61 226.813 91.8381C224.339 91.139 221.731 91.0658 219.222 91.6249C216.713 92.184 214.383 93.358 212.44 95.0412C210.328 91.5036 207.433 88.4963 203.979 86.2495C200.525 84.0027 196.603 82.576 192.512 82.0785C188.428 81.6726 184.305 82.214 180.464 83.6608C176.623 85.1075 173.167 87.4205 170.365 90.42C164.793 85.5152 154.717 82.8292 147.726 85.1482C144.255 86.2423 141.125 88.215 138.64 90.875C136.156 93.5349 134.401 96.7918 133.546 100.33"
      fill="#30569F"/>
    <g opacity="0.3">
      <path opacity="0.3"
            d="M133.546 100.346C126.522 98.5947 117.246 94.9161 109.697 101.673C105.843 105.126 103.683 112.759 103.424 118.005C99.6553 118.276 95.995 119.387 92.7114 121.256C89.4277 123.125 86.6039 125.706 84.4469 128.808C82.1372 131.952 80.887 135.75 80.8766 139.652C81.0101 143.539 82.9704 147.476 86.3154 149.32C84.4971 152.02 83.446 155.163 83.2741 158.414C83.1022 161.666 83.816 164.902 85.3394 167.779C86.906 170.58 89.23 172.882 92.045 174.422C94.86 175.963 98.052 176.678 101.255 176.488C100.755 179.85 101.103 183.285 102.269 186.478C103.434 189.672 105.38 192.523 107.928 194.773C110.483 196.928 113.555 198.38 116.842 198.987C120.128 199.594 123.516 199.335 126.672 198.234C132.753 207.235 146.692 209.203 154.9 202.222C155.926 201.387 156.944 200.328 158.237 200.094C159.387 200.011 160.539 200.236 161.573 200.745C167.062 202.856 172.926 204.691 178.707 203.731C184.488 202.772 190.11 198.218 190.51 192.22C196.829 195.662 203.902 197.484 211.097 197.525C219.322 197.525 228.907 193.797 230.658 185.564C233.089 187.452 236.01 188.602 239.076 188.879C242.141 189.155 245.221 188.546 247.951 187.123C250.668 185.59 252.909 183.334 254.424 180.606C255.939 177.878 256.669 174.784 256.534 171.667C263.508 173.018 269.447 165.894 271.307 158.879C273.117 152.056 272.617 144.398 268.93 138.426C265.243 132.453 258.127 128.574 251.337 129.834C253.12 127.192 254.173 124.126 254.392 120.946C254.61 117.766 253.985 114.585 252.58 111.724C251.135 108.926 248.952 106.577 246.267 104.932C243.582 103.287 240.497 102.407 237.348 102.39C236.58 99.9084 235.22 97.6509 233.384 95.8125C231.549 93.9741 229.294 92.61 226.813 91.8381C224.339 91.139 221.731 91.0658 219.222 91.6249C216.713 92.184 214.383 93.358 212.44 95.0412C210.328 91.5036 207.433 88.4963 203.979 86.2495C200.525 84.0027 196.603 82.576 192.512 82.0785C188.428 81.6726 184.305 82.214 180.464 83.6608C176.623 85.1075 173.167 87.4205 170.365 90.42C164.793 85.5152 154.717 82.8292 147.726 85.1482C144.255 86.2423 141.125 88.215 138.64 90.875C136.156 93.5349 134.401 96.7918 133.546 100.33"
            fill="white"/>
    </g>
    <path
      d="M127.465 115.637C126.75 115.591 126.032 115.639 125.329 115.778C123.387 116.254 121.669 117.385 120.466 118.981C118.873 120.983 117.905 123.986 117.546 127.448C117.308 129.263 117.291 131.101 117.496 132.92C117.678 134.903 118.504 136.773 119.849 138.242L120.141 138.542L119.724 138.609C115.94 139.284 112.52 141.286 110.081 144.256C108.885 145.694 107.953 147.332 107.328 149.094C106.515 151.485 106.243 154.026 106.532 156.535C106.82 159.043 107.662 161.457 108.996 163.6L109.146 163.834L108.879 163.892C107.528 164.251 106.294 164.959 105.301 165.944C104.409 166.818 103.668 167.832 103.107 168.947C102.225 170.796 101.683 172.788 101.505 174.828C101.314 176.496 101.289 177.864 101.255 178.782C101.255 179.207 101.255 179.558 101.255 179.825C101.275 179.943 101.275 180.064 101.255 180.183C101.245 180.064 101.245 179.944 101.255 179.825C101.255 179.549 101.255 179.207 101.255 178.774C101.232 177.448 101.279 176.123 101.397 174.803C101.54 172.726 102.063 170.693 102.94 168.805C103.506 167.648 104.262 166.594 105.176 165.686C106.199 164.664 107.474 163.931 108.871 163.559L108.754 163.851C107.379 161.657 106.51 159.185 106.21 156.614C105.91 154.043 106.186 151.437 107.019 148.986C107.658 147.163 108.615 145.469 109.847 143.981C112.351 140.91 115.873 138.838 119.774 138.142L119.657 138.517C118.255 136.976 117.394 135.02 117.204 132.945C117.005 131.091 117.033 129.22 117.288 127.373C117.68 123.886 118.706 120.808 120.366 118.781C121.612 117.168 123.382 116.041 125.371 115.595C126.064 115.458 126.778 115.472 127.465 115.637Z"
      fill="#30569F"/>
    <path
      d="M145.007 167.546C144.608 167.775 144.189 167.968 143.756 168.121C142.599 168.602 141.419 169.023 140.219 169.381C138.43 169.94 136.562 170.199 134.688 170.148C133.572 170.102 132.47 169.874 131.427 169.473C130.312 169.034 129.274 168.423 128.349 167.663C126.457 166.323 124.963 164.495 124.028 162.374C123.364 160.597 123.217 158.668 123.602 156.81C123.843 155.565 124.334 154.382 125.045 153.332C125.237 153.051 125.452 152.786 125.688 152.54C125.855 152.364 125.938 152.281 125.955 152.289C125.971 152.298 125.654 152.681 125.196 153.432C124.414 154.745 123.938 156.217 123.804 157.739C123.67 159.262 123.88 160.794 124.42 162.224C125.338 164.256 126.777 166.008 128.591 167.304C130.3 168.748 132.43 169.599 134.663 169.731C136.497 169.799 138.331 169.574 140.094 169.064C141.612 168.664 142.813 168.23 143.647 167.955C144.088 167.78 144.543 167.644 145.007 167.546Z"
      fill="#30569F"/>
    <path
      d="M221.257 152.147C221.268 152.225 221.268 152.304 221.257 152.381C221.257 152.556 221.199 152.79 221.149 153.082C221.049 153.691 220.899 154.6 220.665 155.768C220.395 157.202 220.041 158.62 219.606 160.014C219.031 161.897 218.171 163.681 217.053 165.302C215.646 167.281 213.863 168.965 211.806 170.257C209.452 171.828 206.832 172.959 204.074 173.594C202.559 173.942 201.006 174.096 199.453 174.052C197.818 173.971 196.198 173.705 194.623 173.26C191.277 172.282 188.109 170.775 185.238 168.797L185.572 168.655C184.98 172.134 184.363 175.879 182.536 179.324C182.059 180.183 181.501 180.993 180.867 181.743C180.215 182.495 179.476 183.167 178.665 183.745C176.981 184.845 175.096 185.599 173.118 185.964C169.754 186.615 166.283 186.443 162.999 185.464C159.715 184.485 156.717 182.728 154.258 180.342L154.625 180.217C154.34 182.092 153.54 183.85 152.314 185.297C151.156 186.706 149.704 187.844 148.06 188.633C144.954 189.994 141.48 190.267 138.2 189.409C135.303 188.71 132.56 187.483 130.109 185.789C127.947 184.368 126.184 182.418 124.987 180.125C124.49 179.132 124.16 178.064 124.011 176.964C123.896 175.988 123.93 175.001 124.111 174.036C124.389 172.496 125.068 171.058 126.08 169.865C126.718 169.131 127.521 168.559 128.424 168.197C128.733 168.07 129.055 167.975 129.383 167.913C129.383 167.913 129.049 168.013 128.449 168.272C127.577 168.647 126.804 169.218 126.188 169.94C125.223 171.131 124.58 172.55 124.32 174.061C123.961 176.081 124.281 178.163 125.229 179.983C126.413 182.204 128.133 184.094 130.234 185.48C132.658 187.132 135.363 188.328 138.217 189.009C141.415 189.824 144.794 189.548 147.818 188.225C149.397 187.466 150.793 186.376 151.914 185.03C153.089 183.64 153.855 181.95 154.124 180.15L154.191 179.725L154.5 180.025C156.831 182.306 159.674 183.996 162.791 184.955C166.081 185.985 169.576 186.177 172.96 185.514C174.891 185.16 176.732 184.423 178.373 183.345C179.154 182.793 179.866 182.149 180.492 181.426C181.1 180.698 181.636 179.913 182.094 179.082C183.879 175.746 184.496 172.025 185.097 168.564L185.147 168.23L185.422 168.413C188.254 170.373 191.379 171.871 194.681 172.851C196.223 173.292 197.81 173.555 199.411 173.635C200.933 173.686 202.455 173.543 203.94 173.21C206.662 172.597 209.25 171.497 211.581 169.965C213.617 168.706 215.385 167.059 216.786 165.119C217.904 163.528 218.77 161.775 219.356 159.922C219.808 158.54 220.181 157.134 220.473 155.709C220.732 154.55 220.907 153.649 221.032 153.04L221.174 152.356C221.194 152.284 221.222 152.214 221.257 152.147Z"
      fill="#30569F"/>
    <path
      d="M225.478 125.813C225.669 125.808 225.859 125.824 226.046 125.863C226.229 125.863 226.463 125.905 226.73 125.955L227.656 126.18C229.601 126.74 231.404 127.71 232.944 129.025C235.235 130.968 237.079 133.384 238.349 136.107C239.101 137.714 239.696 139.39 240.126 141.112C240.362 142.028 240.488 142.968 240.502 143.914C240.469 144.878 240.383 145.838 240.243 146.792C239.992 148.691 239.384 150.525 238.45 152.197C237.539 153.734 236.331 155.072 234.896 156.135C232.508 157.953 229.788 159.287 226.888 160.064C224.931 160.535 222.919 160.734 220.907 160.656C220.198 160.656 219.648 160.589 219.239 160.556C219.05 160.548 218.863 160.52 218.68 160.472C218.868 160.452 219.059 160.452 219.247 160.472C219.623 160.472 220.165 160.472 220.915 160.472C225.898 160.555 230.755 158.904 234.654 155.801C236.034 154.764 237.196 153.466 238.074 151.981C238.973 150.352 239.558 148.57 239.801 146.725C240.635 142.913 239.3 139.318 237.974 136.307C236.743 133.627 234.961 131.237 232.744 129.292C231.248 127.982 229.503 126.989 227.614 126.372L226.713 126.113L226.037 125.972C225.846 125.937 225.659 125.884 225.478 125.813Z"
      fill="#30569F"/>
    <path
      d="M254.566 138.943C254.783 139.253 254.955 139.593 255.074 139.952C255.44 140.92 255.651 141.939 255.7 142.972C255.78 144.514 255.541 146.055 254.999 147.501C254.361 149.294 253.241 150.875 251.763 152.072C250.993 152.676 250.153 153.183 249.26 153.582C248.436 153.973 247.564 154.254 246.666 154.416C245.14 154.712 243.562 154.585 242.103 154.049C241.133 153.677 240.25 153.109 239.509 152.381C239.308 152.186 239.121 151.977 238.95 151.755C238.883 151.683 238.827 151.602 238.783 151.513C239.081 151.734 239.36 151.98 239.617 152.247C240.379 152.905 241.256 153.417 242.203 153.757C243.612 154.227 245.12 154.316 246.574 154.016C247.442 153.849 248.283 153.569 249.077 153.182C249.935 152.796 250.742 152.306 251.479 151.722C252.893 150.572 253.976 149.066 254.616 147.359C255.154 145.97 255.412 144.487 255.375 142.997C255.314 141.612 255.041 140.245 254.566 138.943Z"
      fill="#30569F"/>
    <path
      d="M238.783 102.857C238.256 102.73 237.721 102.641 237.182 102.59C236.523 102.556 235.862 102.598 235.213 102.716C234.326 102.907 233.469 103.221 232.669 103.65C230.453 104.86 228.671 106.732 227.572 109.005C226.187 111.624 225.403 114.961 224.686 118.665L224.619 119.023L224.427 118.715C222.591 115.851 220.072 113.489 217.095 111.841C213.693 109.905 209.783 109.05 205.884 109.389C201.544 109.793 197.45 111.583 194.206 114.494C192.453 116.001 191.033 117.856 190.035 119.941C188.952 122.073 188.697 124.53 189.318 126.839L189.718 128.132L188.934 127.031C187.187 124.677 184.9 122.778 182.265 121.495C179.629 120.211 176.724 119.581 173.794 119.657C173.117 119.682 172.443 119.749 171.775 119.857C170.426 120.06 169.108 120.436 167.855 120.975C166.592 121.541 165.399 122.252 164.301 123.094C163.211 123.969 162.218 124.959 161.34 126.047C159.758 128.047 158.574 130.332 157.853 132.778C157.174 135.174 156.986 137.682 157.302 140.152L157.353 140.511L157.01 140.394C154.26 139.41 151.32 139.073 148.419 139.41C145.617 139.767 143.028 141.088 141.095 143.147C140.192 144.149 139.499 145.321 139.055 146.594C138.611 147.868 138.425 149.217 138.509 150.563C138.628 153.177 139.658 155.667 141.42 157.603C143.078 159.451 145.251 160.761 147.66 161.365C149.948 161.89 152.308 162.026 154.641 161.765C156.836 161.598 158.981 161.033 160.973 160.097C162.816 159.226 164.354 157.819 165.385 156.06L165.494 155.868L165.644 156.035C167.109 157.638 169.011 158.778 171.116 159.313C172.984 159.803 174.951 159.777 176.805 159.238C178.411 158.767 179.854 157.86 180.976 156.619C181.915 155.564 182.635 154.333 183.095 152.998C183.759 151.159 183.883 149.167 183.453 147.259C183.277 146.602 183.054 145.958 182.786 145.332L183.02 145.8C183.241 146.259 183.415 146.739 183.537 147.234C184.015 149.166 183.919 151.195 183.262 153.073C182.802 154.433 182.079 155.689 181.134 156.769C179.989 158.054 178.511 158.998 176.864 159.496C174.963 160.06 172.945 160.098 171.024 159.605C168.863 159.063 166.906 157.904 165.394 156.268H165.644C164.586 158.084 163.004 159.537 161.106 160.439C159.083 161.417 156.897 162.013 154.658 162.199C152.281 162.47 149.876 162.337 147.543 161.807C145.06 161.189 142.818 159.844 141.103 157.945C139.282 155.948 138.214 153.379 138.083 150.679C137.996 149.279 138.187 147.875 138.647 146.549C139.107 145.222 139.825 144.001 140.761 142.955C142.764 140.82 145.448 139.449 148.352 139.076C151.32 138.723 154.329 139.063 157.144 140.069L156.844 140.319C156.52 137.785 156.713 135.211 157.411 132.753C158.145 130.248 159.357 127.908 160.981 125.863C161.88 124.746 162.898 123.731 164.017 122.835C165.143 121.97 166.367 121.239 167.663 120.658C168.954 120.103 170.311 119.716 171.7 119.507C172.385 119.399 173.076 119.332 173.769 119.307C174.456 119.289 175.144 119.308 175.829 119.365C178.481 119.568 181.056 120.344 183.378 121.64C185.7 122.936 187.712 124.722 189.276 126.873L188.892 127.056C188.245 124.646 188.513 122.082 189.643 119.857C190.679 117.7 192.153 115.782 193.972 114.227C197.287 111.269 201.467 109.458 205.892 109.063C209.862 108.717 213.843 109.59 217.304 111.566C220.318 113.251 222.865 115.662 224.711 118.581L224.452 118.623C225.178 114.919 225.987 111.558 227.414 108.913C228.551 106.617 230.377 104.734 232.636 103.525C233.451 103.099 234.325 102.795 235.23 102.624C235.89 102.504 236.563 102.471 237.232 102.524C237.638 102.561 238.041 102.636 238.433 102.749C238.658 102.807 238.783 102.857 238.783 102.857Z"
      fill="#30569F"/>
    <path
      d="M219.831 138.484C219.834 138.946 219.79 139.407 219.698 139.86C219.528 141.113 219.263 142.351 218.905 143.564C218.408 145.404 217.416 147.071 216.036 148.385C214.202 149.832 211.982 150.702 209.654 150.888C207.342 151.195 204.99 150.869 202.848 149.945C201.106 149.167 199.614 147.923 198.535 146.35C197.804 145.304 197.301 144.116 197.059 142.863C196.989 142.525 196.95 142.182 196.942 141.837C196.919 141.716 196.919 141.592 196.942 141.47C196.942 141.47 197.009 141.962 197.209 142.822C197.518 144.022 198.05 145.154 198.777 146.158C199.856 147.646 201.313 148.818 202.998 149.553C205.082 150.408 207.356 150.696 209.588 150.387C211.827 150.198 213.965 149.367 215.744 147.993C217.082 146.733 218.063 145.142 218.588 143.38C218.966 142.19 219.272 140.979 219.506 139.752C219.587 139.323 219.696 138.899 219.831 138.484Z"
      fill="#30569F"/>
    <path
      d="M213.942 94.2072C213.624 94.3835 213.292 94.5341 212.949 94.6576C212.299 94.9329 211.356 95.3416 210.197 95.9088C208.792 96.528 207.478 97.3362 206.293 98.3112C205.606 98.9148 205.091 99.6888 204.8 100.555C204.631 101.015 204.558 101.505 204.587 101.995C204.616 102.484 204.745 102.962 204.966 103.4L204.608 103.633C203.198 101.673 200.771 100.296 198.11 99.5874C195.307 98.7762 192.392 98.4158 189.476 98.5197C187.102 98.6917 184.816 99.492 182.853 100.839C181.522 101.752 180.353 102.879 179.391 104.175C178.715 105.093 178.415 105.652 178.373 105.627C178.427 105.483 178.491 105.344 178.565 105.21C178.766 104.816 178.995 104.437 179.249 104.075C180.401 102.391 181.914 100.985 183.677 99.9573C185.44 98.9301 187.409 98.308 189.443 98.136C190.873 98.0336 192.31 98.084 193.73 98.2862C195.252 98.4753 196.757 98.7764 198.235 99.1871C200.946 99.9378 203.482 101.339 204.958 103.408L204.599 103.641C204.353 103.152 204.21 102.618 204.179 102.071C204.149 101.524 204.233 100.976 204.424 100.463C204.753 99.5337 205.33 98.7117 206.093 98.086C207.313 97.1026 208.67 96.3018 210.122 95.7086C211.306 95.1664 212.274 94.7911 212.941 94.5575C213.264 94.4131 213.599 94.2959 213.942 94.2072Z"
      fill="#30569F"/>
    <path
      d="M138.601 127.506C138.147 126.983 137.773 126.396 137.491 125.763C136.816 124.271 136.493 122.644 136.545 121.007C136.597 119.37 137.023 117.767 137.791 116.32C138.547 114.957 139.638 113.809 140.961 112.984C142.445 112.055 144.142 111.521 145.891 111.432C147.797 111.316 149.694 111.772 151.338 112.742L151.038 113.059C150.061 111.599 149.452 109.925 149.261 108.179C148.787 103.93 149.928 99.6574 152.456 96.2091C154.484 93.3786 157.433 91.3411 160.798 90.4451C163.044 89.8318 165.406 89.7746 167.679 90.2782C168.294 90.4099 168.896 90.5913 169.481 90.8204C169.687 90.8926 169.886 90.9848 170.073 91.0957C170.073 91.1458 169.239 90.762 167.646 90.4534C164.856 89.9304 161.974 90.2182 159.343 91.2827C156.711 92.3471 154.44 94.1436 152.798 96.4593C150.357 99.8345 149.26 103.998 149.72 108.137C149.893 109.811 150.465 111.419 151.388 112.825L151.964 113.66L151.13 113.134C149.56 112.209 147.752 111.768 145.933 111.866C144.252 111.942 142.619 112.444 141.186 113.326C139.907 114.122 138.851 115.23 138.117 116.546C137.486 117.687 137.078 118.939 136.916 120.233C136.671 122.103 136.924 124.005 137.65 125.746C138.167 126.906 138.642 127.481 138.601 127.506Z"
      fill="#30569F"/>
    <path
      d="M96.7841 138.367C96.7841 138.367 96.8675 138.367 97.0343 138.367C97.2808 138.401 97.5201 138.474 97.7434 138.584C98.5853 138.97 99.2812 139.616 99.7287 140.428C100.077 141.021 100.304 141.677 100.397 142.359C100.49 143.04 100.447 143.733 100.271 144.398C99.8105 146.02 98.7872 147.425 97.3847 148.36C95.988 149.266 94.3948 149.823 92.7384 149.987C91.409 150.154 90.0639 150.154 88.7344 149.987C87.8287 149.869 86.9585 149.559 86.1819 149.078C85.8945 148.908 85.6424 148.684 85.4395 148.419C86.427 149.112 87.5759 149.54 88.7762 149.662C90.0799 149.78 91.3931 149.743 92.6884 149.553C94.2687 149.374 95.7868 148.835 97.1261 147.977C98.4428 147.098 99.413 145.789 99.8705 144.273C100.211 143.03 100.059 141.703 99.4451 140.569C99.0488 139.792 98.4303 139.15 97.6683 138.726C97.1261 138.467 96.7674 138.417 96.7841 138.367Z"
      fill="#30569F"/>
    <path
      d="M129.074 201.246C128.83 201.124 128.605 200.966 128.407 200.778C127.843 200.285 127.342 199.725 126.914 199.11C125.477 197.115 124.583 194.781 124.32 192.337C124.159 190.995 124.199 189.638 124.436 188.308C124.637 187.227 124.973 186.176 125.437 185.18C125.773 184.218 126.347 183.357 127.106 182.677C126.975 182.911 126.83 183.137 126.672 183.353C126.302 183.974 125.984 184.624 125.721 185.297C125.305 186.285 125.006 187.317 124.829 188.375C124.626 189.666 124.601 190.98 124.753 192.278C125.01 194.663 125.834 196.951 127.156 198.952C127.739 199.762 128.38 200.528 129.074 201.246Z"
      fill="#30569F"/>
    <path
      d="M158.879 190.594C159.173 191.107 159.361 191.674 159.429 192.262C159.665 193.702 159.586 195.176 159.196 196.583C158.81 197.99 158.118 199.294 157.169 200.403C156.806 200.886 156.342 201.285 155.809 201.571C155.759 201.513 156.268 201.062 156.919 200.203C157.758 199.083 158.381 197.815 158.754 196.466C159.124 195.109 159.245 193.696 159.113 192.295C159.005 191.732 158.927 191.164 158.879 190.594Z"
      fill="#30569F"/>
    <path
      d="M191.528 180.442C191.686 180.701 191.804 180.982 191.878 181.276C192.143 182.031 192.347 182.807 192.487 183.595C192.954 186.208 192.835 188.892 192.137 191.453C191.429 194.014 190.145 196.379 188.383 198.368C187.854 198.97 187.276 199.528 186.656 200.036C186.444 200.242 186.199 200.411 185.931 200.537C185.881 200.47 186.865 199.702 188.133 198.168C189.785 196.167 190.998 193.843 191.695 191.344C192.376 188.84 192.537 186.223 192.17 183.653C191.887 181.635 191.47 180.467 191.528 180.442Z"
      fill="#30569F"/>
    <path
      d="M228.623 168.447C228.623 168.447 228.79 168.639 229.015 169.039C229.333 169.594 229.612 170.171 229.849 170.766C231.529 174.708 232.078 179.041 231.434 183.278C231.341 183.916 231.21 184.549 231.042 185.172C231.001 185.406 230.919 185.632 230.8 185.839C230.725 185.839 230.942 184.838 231.117 183.236C231.571 179.076 231.042 174.868 229.574 170.949C229.007 169.406 228.556 168.505 228.623 168.447Z"
      fill="#30569F"/>
    <path
      d="M172.176 73.3534C170.658 71.9894 168.921 70.8923 167.037 70.1085C165.204 69.138 163.236 68.449 161.198 68.0648C155.718 67.2307 150.429 70.2753 146.767 73.8288C143.105 77.3823 140.344 81.6198 136.065 84.6728L147.126 84.4893C150.462 84.4309 153.874 84.3642 156.91 83.2214C160.781 81.7783 163.725 78.2165 167.93 77.8161C170.241 77.7483 172.55 78.0295 174.778 78.6502C174.515 76.6471 173.6 74.786 172.176 73.3534ZM160.981 77.716C160.685 77.8918 160.34 77.9678 159.997 77.9329C159.72 77.898 159.44 77.898 159.163 77.9329C158.495 78.0663 158.153 78.8171 157.594 79.2008C157.367 79.3644 157.098 79.4592 156.818 79.474C156.539 79.4888 156.261 79.4229 156.018 79.2842C155.778 79.13 155.597 78.9 155.503 78.6309C155.41 78.3618 155.409 78.0691 155.501 77.7994C155.611 77.5654 155.767 77.3556 155.959 77.1821C156.439 76.7253 157.007 76.3706 157.628 76.1394C157.996 75.8463 158.434 75.6538 158.899 75.5807C159.364 75.5075 159.84 75.5564 160.28 75.7224C160.848 75.8892 161.465 76.2646 161.498 76.8735C161.483 77.0397 161.427 77.1999 161.337 77.3406C161.248 77.4813 161.125 77.5985 160.981 77.6826V77.716Z"
      fill="#C7CFDE"/>
    <path
      d="M149.42 77.8995C149.42 77.8995 149.661 77.766 150.104 77.4824C150.546 77.1988 151.163 76.74 151.93 76.1144C152.698 75.4888 153.599 74.663 154.716 73.7788C156.019 72.7962 157.505 72.0843 159.087 71.685C160.006 71.4551 160.951 71.3457 161.899 71.3597C162.921 71.3923 163.936 71.5378 164.927 71.7935C167.113 72.364 169.173 73.3402 170.999 74.6713C173.024 76.133 174.751 77.9676 176.088 80.0766C177.532 82.3165 178.695 84.7259 179.549 87.2503C181.36 92.4137 182.219 97.5521 183.22 102.14C184.221 106.728 185.03 110.899 185.722 114.394C186.415 117.889 186.998 120.666 187.391 122.66C187.574 123.611 187.716 124.328 187.824 124.912C187.824 125.146 187.899 125.338 187.924 125.505C187.93 125.571 187.93 125.638 187.924 125.705C187.892 125.645 187.869 125.58 187.858 125.513L187.708 124.929L187.19 122.693C186.757 120.708 186.139 117.905 185.38 114.46C184.621 111.015 183.712 106.828 182.744 102.232C181.777 97.6355 180.851 92.5138 179.057 87.4005C177.264 82.2871 174.536 77.716 170.716 75.0133C168.936 73.7022 166.928 72.7348 164.793 72.1605C162.944 71.626 160.99 71.5686 159.113 71.9937C157.569 72.3622 156.113 73.028 154.825 73.9539C153.707 74.7881 152.798 75.6222 151.997 76.2228C151.396 76.6982 150.763 77.1329 150.104 77.5241C149.932 77.6286 149.754 77.7206 149.57 77.7994L149.42 77.8995Z"
      fill="#263238"/>
    <path
      d="M199.036 89.5108C198.666 90.4984 198.512 91.5539 198.586 92.6059C198.659 93.6578 198.958 94.6818 199.461 95.6085C200.545 97.3352 202.489 98.2277 204.274 99.162C207.035 100.593 209.652 102.286 212.09 104.217C212.616 103.099 212.215 101.765 211.773 100.605C211.389 99.5957 210.989 98.5948 210.564 97.6021C209.488 95.0997 208.211 92.5471 206.101 90.8538C203.99 89.1605 201.263 87.976 199.036 89.5108Z"
      fill="#C7CFDE"/>
    <path
      d="M205.342 94.6158C205.342 94.6158 205.041 94.2321 204.508 93.5648C203.728 92.629 202.841 91.789 201.863 91.0624C200.419 89.9834 198.732 89.2759 196.95 89.002C194.775 88.6654 192.553 89.1373 190.702 90.3283C188.929 91.6384 187.521 93.3818 186.615 95.3916C185.807 97.0096 185.113 98.6819 184.538 100.397C184.141 101.552 183.88 102.75 183.762 103.967C183.687 104.801 183.712 105.31 183.67 105.31C183.631 105.197 183.612 105.079 183.612 104.959C183.588 104.623 183.588 104.286 183.612 103.95C183.666 102.709 183.881 101.481 184.254 100.296C184.795 98.544 185.467 96.8347 186.264 95.1831C187.173 93.0977 188.611 91.2861 190.435 89.9279C192.376 88.6683 194.719 88.183 197 88.5682C198.828 88.8705 200.55 89.631 202.005 90.7787C202.985 91.5424 203.856 92.4379 204.591 93.4397C204.793 93.707 204.979 93.9855 205.15 94.2738C205.3 94.4991 205.358 94.6075 205.342 94.6158Z"
      fill="#263238"/>
    <path
      d="M135.039 132.328C134.602 131.921 134.079 131.617 133.509 131.441C132.938 131.264 132.336 131.219 131.745 131.308C131.155 131.397 130.592 131.618 130.099 131.955C129.607 132.292 129.196 132.736 128.899 133.254C128.523 134.115 128.303 135.035 128.249 135.973C128.119 136.665 128.119 137.375 128.249 138.067C128.37 138.402 128.47 138.745 128.549 139.093C128.578 139.522 128.524 139.952 128.39 140.361C128.166 141.028 128.043 141.726 128.023 142.43C128.016 142.781 128.099 143.129 128.264 143.44C128.429 143.751 128.671 144.015 128.966 144.206C129.233 144.292 129.48 144.431 129.692 144.615C129.851 144.862 129.925 145.156 129.9 145.449C129.9 146.584 129.959 147.718 129.984 148.853C130.763 148.283 131.367 147.507 131.728 146.613C132.089 145.718 132.193 144.74 132.027 143.789C131.869 143.219 131.763 142.635 131.71 142.046C131.71 140.753 132.72 139.602 132.611 138.309C132.503 137.016 131.493 136.173 131.252 134.972C131.164 134.519 131.195 134.05 131.341 133.612C131.488 133.174 131.744 132.78 132.086 132.47C132.442 132.172 132.874 131.979 133.334 131.913C133.793 131.846 134.262 131.909 134.688 132.094"
      fill="#C7CFDE"/>
    <path
      d="M181.126 95.3416C180.674 94.7122 180.066 94.2115 179.361 93.8886C178.657 93.5656 177.881 93.4317 177.109 93.4999C176.337 93.568 175.596 93.836 174.959 94.2774C174.323 94.7188 173.812 95.3184 173.477 96.0172C173.189 96.8548 172.787 97.649 172.284 98.3779C171.208 99.5624 169.198 99.3705 168.113 100.538C167.752 100.956 167.495 101.454 167.362 101.99C167.085 102.956 167.01 103.968 167.142 104.964C167.274 105.96 167.61 106.919 168.13 107.779C168.889 109.005 170.04 110.039 170.374 111.457C170.799 113.293 169.79 115.511 170.958 116.963C172.318 115.552 173.261 113.792 173.682 111.878C174.103 109.964 173.986 107.97 173.343 106.119C173.131 105.667 173.018 105.175 173.01 104.676C173.16 103.007 175.671 102.891 176.697 101.564C177.447 100.597 177.247 99.212 177.289 97.9775C177.331 96.7429 178.006 95.2415 179.216 95.3082C180.05 95.3082 180.968 96.0589 181.501 95.4417"
      fill="#C7CFDE"/>
    <path
      d="M201.138 133.979C200.771 134.597 200.404 135.414 200.837 135.99C201.029 136.248 201.338 136.39 201.546 136.632C202.022 137.216 201.73 138.084 201.48 138.793C201.229 139.502 201.154 140.461 201.805 140.836C202.197 141.036 202.639 140.903 203.09 140.961C203.466 141.044 203.811 141.232 204.085 141.504C204.358 141.776 204.548 142.12 204.633 142.496C204.797 143.256 204.82 144.039 204.699 144.807C205.942 144.173 206.293 142.538 206.368 141.12C206.475 140.429 206.304 139.724 205.892 139.16C205.692 138.951 205.442 138.818 205.258 138.592C204.8 138.025 205.016 137.191 205.2 136.482C205.383 135.773 205.434 134.814 204.825 134.463C204.416 134.213 203.807 134.288 203.532 133.896C203.131 133.329 203.99 132.536 203.365 132.228"
      fill="#C7CFDE"/>
    <path
      d="M228.748 140.236C227.951 137.889 226.573 135.782 224.743 134.11C222.912 132.439 220.689 131.258 218.28 130.676C216.294 130.234 214.109 130.276 212.399 131.444L212.007 131.594C211.731 134.197 211.514 137.041 212.949 139.201C215.226 142.638 220.457 142.621 223.059 145.833C224.953 148.194 224.861 151.672 226.212 154.366C227.765 152.401 228.808 150.084 229.251 147.619C229.693 145.154 229.52 142.618 228.748 140.236ZM217.329 137.733C217.225 138.091 217.004 138.404 216.701 138.621C216.399 138.839 216.033 138.949 215.66 138.934C215.292 138.898 214.941 138.76 214.647 138.536C214.352 138.312 214.126 138.011 213.992 137.667C213.858 137.314 213.801 136.936 213.824 136.56C213.847 136.183 213.95 135.815 214.125 135.481L214.209 135.64C214.546 135.433 214.935 135.327 215.33 135.335C215.726 135.343 216.11 135.465 216.438 135.685C216.766 135.906 217.024 136.217 217.18 136.58C217.337 136.943 217.385 137.343 217.32 137.733H217.329Z"
      fill="#C7CFDE"/>
    <path
      d="M223.76 141.37C223.644 141.254 223.545 141.122 223.468 140.978L222.701 139.794C221.779 138.344 220.723 136.984 219.547 135.731C217.701 133.985 215.506 132.649 213.108 131.811C211.716 131.272 210.245 130.968 208.753 130.91C207.161 130.871 205.587 131.254 204.191 132.019C201.296 133.621 199.344 136.24 197.776 138.617C196.381 140.754 195.183 143.012 194.197 145.366C193.548 146.956 192.991 148.583 192.529 150.237C192.187 151.413 192.037 152.072 191.995 152.064C191.996 151.898 192.019 151.732 192.062 151.572C192.112 151.255 192.212 150.788 192.354 150.195C192.768 148.512 193.298 146.86 193.939 145.249C194.886 142.856 196.062 140.56 197.451 138.392C199.027 135.981 200.996 133.287 204.007 131.619C205.472 130.816 207.125 130.418 208.795 130.468C210.334 130.529 211.851 130.851 213.283 131.419C215.728 132.296 217.956 133.69 219.814 135.506C220.98 136.786 222.009 138.184 222.884 139.677C223.193 140.202 223.426 140.619 223.576 140.903C223.661 141.049 223.723 141.206 223.76 141.37Z"
      fill="#263238"/>
    <path d="M159.655 159.88C159.722 159.93 159.788 159.988 159.855 160.03L160.089 159.963L159.655 159.88Z"
          fill="#C7CFDE"/>
    <path
      d="M164.276 179.908C164.159 178.515 163.876 177.139 163.826 175.737C163.725 172.976 164.543 170.223 164.268 167.479C164.113 165.993 163.638 164.557 162.877 163.272C162.115 161.986 161.084 160.88 159.855 160.03C157.956 160.62 156.205 161.61 154.722 162.934C153.238 164.257 152.056 165.884 151.255 167.704C150.447 169.595 150.051 171.636 150.094 173.691C150.138 175.747 150.618 177.769 151.505 179.624C152.339 181.293 153.457 182.828 153.599 184.629C153.741 186.431 152.84 188.166 152.548 189.968C151.955 193.638 153.866 197.192 155.709 200.395C155.605 199.511 155.683 198.616 155.938 197.763C156.193 196.911 156.621 196.12 157.194 195.44C158.253 194.03 159.605 192.871 160.731 191.519C163.354 188.245 164.623 184.089 164.276 179.908ZM160.939 174.861C160.747 175.169 160.476 175.419 160.155 175.587C159.997 175.669 159.819 175.706 159.641 175.695C159.463 175.683 159.292 175.623 159.146 175.52C158.964 175.345 158.824 175.132 158.737 174.895C158.569 174.539 158.421 174.174 158.295 173.802C158.059 173.013 158.018 172.179 158.176 171.371C158.335 170.563 158.688 169.805 159.204 169.164V169.114C159.51 169.098 159.815 169.155 160.095 169.28C160.375 169.404 160.621 169.593 160.814 169.831C161.422 170.524 161.757 171.413 161.757 172.334C161.753 173.241 161.467 174.124 160.939 174.861Z"
      fill="#C7CFDE"/>
    <path
      d="M155.809 173.819C155.787 173.647 155.787 173.473 155.809 173.302C155.809 172.96 155.909 172.467 155.993 171.825C156.244 170.017 156.592 168.224 157.036 166.453C157.669 163.806 158.68 161.263 160.038 158.904C161.686 155.96 164.156 153.56 167.146 151.997C168.651 151.231 170.3 150.789 171.986 150.698C173.673 150.608 175.36 150.871 176.939 151.472C179.447 152.63 181.517 154.563 182.844 156.985C183.757 158.571 184.538 160.228 185.18 161.94C185.405 162.541 185.58 163.016 185.689 163.333C185.756 163.494 185.804 163.662 185.831 163.834C185.734 163.689 185.659 163.532 185.605 163.367C185.447 163.016 185.255 162.533 185.013 162.007C184.319 160.331 183.502 158.708 182.569 157.152C181.248 154.821 179.221 152.97 176.78 151.864C175.254 151.295 173.627 151.05 172.002 151.143C170.376 151.236 168.788 151.666 167.337 152.406C164.436 153.925 162.029 156.24 160.397 159.079C159.044 161.402 158.016 163.9 157.344 166.503C156.744 168.714 156.41 170.557 156.168 171.817C156.06 172.417 155.976 172.901 155.901 173.277C155.889 173.46 155.858 173.642 155.809 173.819Z"
      fill="#263238"/>
    <path
      d="M115.177 120.95C112.54 121.556 110.08 122.766 107.991 124.486C105.902 126.206 104.241 128.388 103.14 130.86C102.06 133.378 101.563 136.109 101.689 138.847C101.815 141.584 102.559 144.258 103.866 146.667C105.293 144.623 106.035 142.179 107.203 139.994C108.371 137.808 110.097 135.64 112.5 135.131C114.51 134.714 116.487 134.705 118.481 134.221C120.651 133.712 122.56 132.424 123.844 130.601C125.271 128.691 127.139 127.632 128.566 125.73C125.729 121.451 120.074 119.907 115.177 120.95ZM109.213 132.628C109.129 132.822 108.997 132.992 108.829 133.12C108.64 133.237 108.417 133.285 108.196 133.256C107.976 133.227 107.773 133.123 107.62 132.962C107.471 132.791 107.369 132.584 107.325 132.361C107.281 132.139 107.296 131.909 107.37 131.694C107.478 131.352 107.778 131.035 108.12 131.102L107.995 131.31C108.062 131.217 108.151 131.142 108.253 131.089C108.355 131.037 108.468 131.01 108.583 131.01C108.698 131.01 108.811 131.037 108.913 131.089C109.016 131.142 109.104 131.217 109.171 131.31C109.294 131.507 109.363 131.732 109.37 131.964C109.378 132.195 109.323 132.424 109.213 132.628ZM119.398 130.568C118.782 131.332 117.906 131.843 116.937 132.003C115.984 132.146 115.013 132.124 114.068 131.936C113.629 131.896 113.21 131.734 112.858 131.469C112.653 131.274 112.513 131.02 112.456 130.743C112.4 130.465 112.429 130.177 112.541 129.917C112.581 129.822 112.648 129.741 112.733 129.684C112.84 129.626 112.964 129.606 113.084 129.625C113.851 129.749 114.639 129.651 115.352 129.342C115.864 128.949 116.3 128.465 116.637 127.915C116.914 127.531 117.301 127.24 117.747 127.081C117.691 127.092 117.635 127.092 117.58 127.081H117.947C118.027 127.069 118.108 127.069 118.189 127.081C118.323 127.045 118.459 127.02 118.597 127.006C118.848 127.023 119.09 127.11 119.293 127.257C119.497 127.405 119.655 127.607 119.749 127.84C119.931 128.286 119.995 128.772 119.933 129.25C119.872 129.728 119.688 130.182 119.398 130.568Z"
      fill="#C7CFDE"/>
    <path
      d="M111.39 127.832C111.476 127.726 111.574 127.63 111.682 127.548C111.972 127.288 112.276 127.043 112.591 126.814C113.771 125.985 115.063 125.327 116.429 124.862C118.462 124.166 120.615 123.882 122.76 124.028C125.4 124.166 127.963 124.969 130.209 126.364C132.416 127.802 134.295 129.689 135.723 131.903C136.879 133.696 137.857 135.599 138.642 137.583C139.31 139.251 139.768 140.669 140.052 141.637C140.202 142.121 140.302 142.471 140.369 142.763C140.411 142.893 140.439 143.028 140.452 143.164C140.228 142.688 140.039 142.198 139.885 141.695C139.551 140.745 139.051 139.368 138.342 137.708C137.53 135.761 136.535 133.896 135.372 132.136C133.963 129.985 132.122 128.15 129.967 126.747C127.783 125.394 125.299 124.603 122.735 124.445C120.638 124.296 118.531 124.548 116.529 125.188C114.694 125.809 112.962 126.7 111.39 127.832Z"
      fill="#263238"/>
    <path
      d="M241.444 109.289C242.642 110.044 243.977 110.555 245.372 110.794C246.768 111.033 248.196 110.995 249.577 110.682C251.879 110.148 254.123 108.83 256.451 109.239C258.252 109.547 259.787 110.865 261.631 110.907C264.133 110.999 266.194 108.755 268.688 108.496C270.356 108.313 272.024 109.088 273.568 109.839C274.01 108.021 272.683 106.302 271.457 104.918C268.955 102.14 266.26 99.212 262.674 98.3612C258.72 97.4269 254.657 99.1953 250.595 99.1953C249.646 99.1283 248.692 99.1619 247.75 99.2954C246.19 99.6374 244.923 100.78 243.746 101.881C242.627 102.748 241.763 103.901 241.244 105.218C240.877 106.469 241.144 107.829 240.818 109.088"
      fill="#C7CFDE"/>
    <path
      d="M265.184 104.576C265.184 104.576 264.542 104.375 263.383 104.084C261.746 103.662 260.067 103.427 258.378 103.383C255.869 103.311 253.363 103.618 250.945 104.292C247.976 105.104 245.158 106.395 242.604 108.112C237.999 111.301 234.066 115.362 231.025 120.066C230.053 121.455 229.252 122.956 228.64 124.537C228.231 125.663 228.131 126.322 228.089 126.314C228.083 126.151 228.097 125.989 228.131 125.83C228.213 125.372 228.327 124.92 228.473 124.479C229.028 122.855 229.797 121.312 230.759 119.891C233.752 115.087 237.698 110.948 242.353 107.729C244.949 105.992 247.812 104.693 250.828 103.883C253.273 103.222 255.805 102.941 258.336 103.049C260.049 103.118 261.747 103.399 263.391 103.883C263.836 104.014 264.273 104.17 264.701 104.35C264.873 104.399 265.036 104.475 265.184 104.576Z"
      fill="#263238"/>
    <path
      d="M331.358 303.58L335.437 318.87C335.437 318.87 321.257 328.145 321.74 331.04L351.628 324.2L346.265 300.118L331.358 303.58Z"
      fill="#30569F"/>
    <path
      d="M344.388 315.449C344.696 315.472 344.985 315.606 345.2 315.828C345.416 316.049 345.542 316.342 345.556 316.651C345.545 316.96 345.416 317.253 345.196 317.47C344.976 317.688 344.681 317.812 344.371 317.818C344.044 317.794 343.738 317.649 343.511 317.412C343.285 317.174 343.154 316.862 343.145 316.534C343.191 316.214 343.359 315.923 343.614 315.724C343.869 315.525 344.191 315.433 344.513 315.466"
      fill="#E0E0E0"/>
    <g opacity="0.6">
      <path opacity="0.6"
            d="M351.628 324.2L350.994 321.797L322.541 329.246C322.541 329.246 321.34 330.131 321.707 331.032L351.628 324.2Z"
            fill="white"/>
    </g>
    <path
      d="M334.945 318.82C334.987 318.961 335.729 318.861 336.555 319.17C337.381 319.478 337.907 320.004 338.032 319.912C338.157 319.82 337.74 319.028 336.73 318.678C335.721 318.327 334.854 318.694 334.945 318.82Z"
      fill="#263238"/>
    <path
      d="M332.067 320.83C332.067 320.98 332.76 321.088 333.394 321.589C334.028 322.089 334.328 322.715 334.47 322.682C334.611 322.648 334.52 321.789 333.711 321.18C332.901 320.571 332.042 320.696 332.067 320.83Z"
      fill="#263238"/>
    <path
      d="M331.141 325.001C331.283 325.001 331.325 324.225 330.766 323.507C330.207 322.79 329.448 322.632 329.415 322.765C329.381 322.898 329.907 323.232 330.349 323.824C330.791 324.417 331 325.017 331.141 325.001Z"
      fill="#263238"/>
    <path
      d="M334.37 315.258C334.461 315.375 335.087 315.024 335.929 314.891C336.772 314.757 337.473 314.891 337.514 314.724C337.556 314.557 336.822 314.207 335.846 314.374C334.87 314.54 334.278 315.133 334.37 315.258Z"
      fill="#263238"/>
    <path d="M297.55 122.176L282.66 174.494L294.355 176.78L302.079 150.404L297.55 122.176Z" fill="white"/>
    <path
      d="M297.55 122.176C297.808 123.736 299.468 133.654 302.263 150.371V150.454C300.027 158.112 297.4 167.137 294.572 176.838L294.513 177.038L294.313 176.997L289.308 176.021L282.635 174.72L282.393 174.669L282.46 174.436C286.672 159.63 290.501 146.492 293.229 137.133C295.848 128.107 297.258 123.252 297.566 122.176C297.258 123.269 295.898 128.224 293.312 137.425C290.685 146.859 287.073 159.88 282.902 174.561L282.727 174.277L289.4 175.579L294.405 176.555L294.146 176.713C296.999 167.02 299.652 157.995 301.896 150.354V150.437C299.318 133.679 297.792 123.744 297.55 122.176Z"
      fill="#E0E0E0"/>
    <path
      d="M365.167 211.981C365.167 211.981 364.091 216.369 357.784 217.22C338.782 219.781 327.496 234.186 327.496 234.186L332.443 218.137L350.744 205.383L362.422 209.062L365.167 211.981Z"
      fill="#E0E0E0"/>
    <path
      d="M339.817 249.777C336.647 237.098 334.378 230.291 334.378 230.291C334.378 230.291 334.737 176.288 334.378 171.8C333.502 160.956 327.396 148.527 326.604 146.942L296.474 154.008L298.409 169.022L305.991 235.037L332.067 310.578L349.96 307.8C349.96 307.8 342.986 262.456 339.817 249.777Z"
      fill="#263238"/>
    <path
      d="M311.589 87.5339L312.69 87.7841L323.868 90.2866C323.868 90.2866 326.245 118.815 326.645 122.376C327.046 125.938 322.091 133.079 322.091 133.079C322.091 133.079 326.645 135.848 327.871 139.418C329.098 142.988 327.871 149.061 327.871 149.061L321.04 155.1C318.259 157.58 314.928 159.361 311.322 160.297L297.141 163.959C297.141 163.959 295.473 132.837 291.16 120.366C288.274 112.025 296.165 94.1654 296.165 94.1654L305.925 87.4922"
      fill="#30569F"/>
    <path
      d="M304.715 116.729C302.403 117.071 300.071 117.264 297.733 117.305C295.403 117.496 293.062 117.535 290.726 117.422C293.039 117.079 295.371 116.887 297.708 116.846C300.039 116.66 302.379 116.621 304.715 116.729Z"
      fill="white"/>
    <path
      d="M306.767 132.578C304.738 133.007 302.681 133.285 300.611 133.412C298.553 133.679 296.48 133.799 294.405 133.771C296.436 133.34 298.497 133.061 300.569 132.937C302.624 132.667 304.695 132.547 306.767 132.578Z"
      fill="white"/>
    <path
      d="M309.428 150.212C308.888 150.579 308.294 150.861 307.668 151.046C304.709 152.128 301.549 152.552 298.409 152.289C297.755 152.278 297.108 152.162 296.49 151.947C298.679 152.014 300.869 151.939 303.047 151.722C306.642 151.255 309.378 150.095 309.428 150.212Z"
      fill="white"/>
    <path
      d="M293.304 78.3582C291.402 77.474 290.209 75.5221 289.509 73.5451C288.808 71.5682 288.483 69.4578 287.707 67.5142C287.123 66.0544 287.765 63.7438 286.456 62.8763C284.787 61.7919 284.837 58.9224 285.471 57.496C286.155 55.9362 288.024 54.7767 288.149 54.2762C288.483 52.9833 287.315 51.5819 287.765 50.3056C288.75 47.3194 291.185 47.7114 291.185 47.7114C292.295 46.3684 293.796 44.5917 296.19 43.9577C298.834 43.2821 302.722 42.7732 305.074 44.1579C307.426 45.5426 309.153 46.4602 309.912 49.0794"
      fill="#263238"/>
    <path
      d="M313.624 52.7414C314.292 52.8143 314.908 53.1348 315.351 53.6397C315.795 54.1447 316.032 54.7974 316.018 55.4691L314.416 91.7047C314.35 95.9839 308.102 98.3779 303.522 98.2778C298.893 98.1694 298.751 95.9005 298.693 91.8381C298.592 85.0398 298.601 82.4873 298.601 82.529C298.601 82.5707 292.762 81.5447 291.569 73.9205C290.977 70.1251 291.177 63.9107 291.51 58.8307C291.802 54.2595 294.847 48.654 299.402 49.1462L313.624 52.7414Z"
      fill="#D38D6E"/>
    <path
      d="M292.995 64.0025C292.988 64.2607 293.083 64.5113 293.26 64.7002C293.436 64.889 293.68 65.0009 293.938 65.0118C294.182 65.0328 294.424 64.9571 294.613 64.8011C294.802 64.6451 294.922 64.4212 294.947 64.1776C294.95 63.9222 294.853 63.6759 294.677 63.4906C294.501 63.3054 294.26 63.1958 294.005 63.185C293.763 63.1637 293.523 63.2371 293.335 63.3896C293.146 63.5422 293.025 63.7619 292.995 64.0025Z"
      fill="#263238"/>
    <path
      d="M292.845 62.0338C292.97 62.1673 293.679 61.6168 294.764 61.6251C295.848 61.6334 296.582 62.159 296.699 62.0255C296.816 61.892 296.632 61.7419 296.298 61.4916C295.844 61.175 295.301 61.0087 294.747 61.0162C294.2 61.0136 293.666 61.1828 293.22 61.5C292.903 61.7502 292.787 61.9754 292.845 62.0338Z"
      fill="#263238"/>
    <path
      d="M303.164 64.0024C303.157 64.2566 303.248 64.5037 303.419 64.6918C303.59 64.88 303.828 64.9946 304.081 65.0118C304.326 65.035 304.569 64.9602 304.759 64.8037C304.948 64.6473 305.067 64.4221 305.091 64.1776C305.093 63.9222 304.996 63.6758 304.82 63.4906C304.644 63.3054 304.403 63.1958 304.148 63.185C303.911 63.1704 303.677 63.2469 303.494 63.3988C303.311 63.5507 303.193 63.7665 303.164 64.0024Z"
      fill="#263238"/>
    <path
      d="M303.189 62.2507C303.305 62.3841 304.023 61.8336 305.099 61.8419C306.175 61.8503 306.926 62.3758 307.043 62.2423C307.159 62.1089 306.976 61.9587 306.634 61.7168C306.183 61.3973 305.643 61.228 305.091 61.233C304.543 61.2287 304.009 61.3981 303.564 61.7168C303.247 61.9671 303.13 62.2006 303.189 62.2507Z"
      fill="#263238"/>
    <path
      d="M299.352 70.0167C298.798 69.8364 298.223 69.7298 297.642 69.6998C297.375 69.6998 297.124 69.6163 297.074 69.4328C297.046 69.1423 297.11 68.8502 297.258 68.5987C297.517 67.948 297.775 67.2724 298.092 66.555C298.832 64.8235 299.432 63.0355 299.885 61.2081C299.009 62.876 298.267 64.6109 297.667 66.3965C297.4 67.1139 297.141 67.7979 296.899 68.4569C296.732 68.7803 296.682 69.1517 296.757 69.5079C296.796 69.6031 296.855 69.6882 296.932 69.7563C297.009 69.8243 297.1 69.8735 297.2 69.8999C297.349 69.9397 297.503 69.9621 297.658 69.9667C298.219 70.0514 298.787 70.0682 299.352 70.0167Z"
      fill="#263238"/>
    <path
      d="M298.601 82.529C302.189 82.5913 305.724 81.6556 308.811 79.8263C308.811 79.8263 306.225 85.1982 298.601 84.4725V82.529Z"
      fill="#B26746"/>
    <path
      d="M299.794 72.5859C299.991 72.3386 300.247 72.1448 300.538 72.0223C300.83 71.8999 301.147 71.8527 301.462 71.8852C301.694 71.9063 301.919 71.9741 302.124 72.0845C302.329 72.1949 302.51 72.3456 302.655 72.5275C302.795 72.7026 302.878 72.9171 302.892 73.1412C302.905 73.3653 302.849 73.5881 302.73 73.7788C302.562 73.9679 302.341 74.1023 302.095 74.1647C301.85 74.2272 301.592 74.2148 301.354 74.1291C300.855 73.9421 300.399 73.6586 300.011 73.2949C299.894 73.2092 299.793 73.105 299.71 72.9863C299.673 72.9276 299.654 72.8597 299.654 72.7903C299.654 72.7209 299.673 72.6529 299.71 72.5943"
      fill="#B26746"/>
    <path
      d="M302.413 70.7841C302.246 70.7841 302.238 71.9102 301.262 72.7194C300.286 73.5285 299.068 73.4034 299.06 73.5535C299.051 73.7037 299.327 73.7704 299.844 73.7871C300.511 73.7961 301.16 73.5719 301.679 73.1531C301.932 72.949 302.141 72.6961 302.294 72.4095C302.448 72.1229 302.542 71.8085 302.571 71.4848C302.655 71.0594 302.521 70.7758 302.413 70.7841Z"
      fill="#263238"/>
    <path
      d="M302.788 58.7556C302.889 59.0392 303.94 58.9058 305.174 59.0559C306.409 59.2061 307.401 59.5481 307.568 59.2895C307.643 59.1727 307.468 58.9058 307.068 58.6222C306.533 58.2762 305.924 58.0618 305.291 57.9965C304.66 57.9178 304.019 57.9922 303.422 58.2134C302.972 58.3969 302.738 58.6222 302.788 58.7556Z"
      fill="#263238"/>
    <path
      d="M292.637 59.1727C292.82 59.4146 293.546 59.1727 294.422 59.1727C295.298 59.1727 296.032 59.3395 296.198 59.0893C296.274 58.9725 296.157 58.7306 295.84 58.5054C295.409 58.2261 294.902 58.0863 294.388 58.105C293.876 58.1098 293.379 58.2794 292.97 58.5888C292.662 58.8057 292.562 59.0476 292.637 59.1727Z"
      fill="#263238"/>
    <path
      d="M309.437 48.5456C309.441 49.3113 309.276 50.0685 308.954 50.7632C308.631 51.4578 308.16 52.0729 307.573 52.5644C306.986 53.0559 306.297 53.4119 305.557 53.6068C304.816 53.8018 304.042 53.831 303.289 53.6923C302.121 53.4838 300.845 52.8582 299.835 53.5171C298.826 54.1761 298.734 55.761 297.792 56.5785C296.449 57.7463 294.313 56.6536 292.612 57.1624C291.294 57.5461 290.468 58.8307 289.592 59.865C288.716 60.8994 287.406 61.9337 286.088 61.5334C286.125 60.3461 286.301 59.1674 286.614 58.0216C286.927 56.8655 287.631 55.8541 288.608 55.1604C289.15 54.8017 289.784 54.5849 290.276 54.1761C291.369 53.2919 291.619 51.7571 292.295 50.5225C292.74 49.7308 293.367 49.0562 294.124 48.5544C294.881 48.0526 295.746 47.7379 296.649 47.6364C298.15 47.4862 299.694 47.9367 301.153 47.5613C302.238 47.2944 303.18 46.5937 304.273 46.3851C306.409 45.9764 308.386 47.5112 309.937 49.0294"
      fill="#263238"/>
    <path
      d="M313.449 65.0618C313.631 65.1337 313.782 65.2673 313.876 65.4394C313.969 65.6115 313.999 65.811 313.96 66.003C313.922 66.195 313.816 66.3672 313.663 66.4895C313.51 66.6117 313.319 66.6762 313.123 66.6717C310.563 67.2556 310.229 62.2507 310.796 60.8326C309.84 60.0367 308.986 59.1262 308.252 58.1216C307.437 56.5192 307.032 54.7391 307.076 52.9416C306.15 52.9999 302.221 51.6987 302.638 51.5819C303.597 51.3066 305.549 50.6893 306.066 49.8552C306.581 48.9641 307.322 48.2248 308.214 47.7121C309.106 47.1994 310.118 46.9316 311.147 46.9357C312.184 47.019 313.166 47.4351 313.948 48.122C314.729 48.8089 315.268 49.7299 315.484 50.7477C316.731 50.7908 317.942 51.1701 318.991 51.8456C320.039 52.5211 320.886 53.4676 321.44 54.5848C322.02 55.7586 322.304 57.0567 322.266 58.3655C322.229 59.6744 321.87 60.9539 321.223 62.0922C320.811 62.6303 320.544 63.265 320.447 63.9357C320.447 64.7698 321.065 65.4539 321.507 66.1545C322.064 67.1636 322.372 68.2915 322.404 69.4438C322.436 70.5962 322.191 71.7394 321.69 72.7777C320.756 74.8631 320.097 75.5888 318.771 76.0142C316.168 76.8484 319.188 82.1786 314.859 82.1786"
      fill="#263238"/>
    <path
      d="M313.349 67.1555C313.363 66.7813 313.472 66.4168 313.665 66.0957C313.858 65.7746 314.128 65.5073 314.452 65.3186C314.775 65.1298 315.141 65.0257 315.515 65.0158C315.89 65.0059 316.261 65.0906 316.594 65.262C317.361 65.7124 317.953 66.605 317.878 68.3317C317.695 72.9195 313.124 71.7851 313.115 71.6683C313.107 71.5515 313.257 69.0574 313.349 67.1555Z"
      fill="#D38D6E"/>
    <path
      d="M314.6 69.9666C314.6 69.9666 314.675 70.0333 314.809 70.1C315.002 70.1746 315.216 70.1746 315.409 70.1C315.713 69.9254 315.965 69.6723 316.139 69.3671C316.312 69.0619 316.4 68.7158 316.393 68.365C316.423 67.9702 316.363 67.574 316.218 67.2055C316.182 67.0607 316.11 66.9271 316.01 66.8165C315.909 66.706 315.783 66.6218 315.643 66.5716C315.553 66.5418 315.455 66.5456 315.367 66.5824C315.28 66.6193 315.209 66.6865 315.167 66.7718C315.101 66.8969 315.126 66.9886 315.101 66.997C315.076 67.0053 315 66.9136 315.05 66.7301C315.075 66.6143 315.144 66.5127 315.242 66.4464C315.371 66.3566 315.53 66.3207 315.684 66.3463C315.877 66.3868 316.056 66.4776 316.203 66.6094C316.349 66.7413 316.458 66.9095 316.519 67.0971C316.698 67.5002 316.776 67.9415 316.744 68.3817C316.751 68.792 316.635 69.195 316.413 69.5396C316.19 69.8843 315.87 70.1548 315.493 70.3169C315.368 70.3495 315.238 70.3529 315.112 70.3268C314.986 70.3008 314.868 70.246 314.767 70.1668C314.608 70.0833 314.583 70.0166 314.6 69.9666Z"
      fill="#B26746"/>
    <path
      d="M320.164 63.5854C320.164 63.5854 320.314 63.3351 320.531 62.8513C320.822 62.178 320.961 61.449 320.94 60.7159C320.91 59.6317 320.489 58.5948 319.755 57.7963C319.339 57.3236 318.831 56.9405 318.262 56.6702C317.634 56.3974 316.961 56.2473 316.277 56.2281C314.859 56.1614 313.474 56.3783 312.198 56.2281C311.069 56.1073 309.994 55.6836 309.086 55.0019C308.477 54.5469 307.959 53.9809 307.56 53.3336C307.4 53.1056 307.282 52.8516 307.209 52.5829C307.728 53.4515 308.414 54.2085 309.228 54.8101C310.114 55.44 311.149 55.8281 312.231 55.9362C313.457 56.0696 314.825 55.8444 316.293 55.9362C317.021 55.9563 317.738 56.1178 318.404 56.4116C319.019 56.6939 319.568 57.1033 320.014 57.6128C320.654 58.3279 321.061 59.2219 321.178 60.1747C321.296 61.1275 321.12 62.0935 320.673 62.9431C320.55 63.1903 320.376 63.4091 320.164 63.5854Z"
      fill="#3E485B"/>
    <path
      d="M320.164 53.4087C319.592 53.0702 318.943 52.8809 318.279 52.8582C317.562 52.8516 316.85 52.973 316.177 53.2169C315.401 53.4671 314.575 53.8508 313.674 54.1428C312.797 54.4399 311.861 54.52 310.946 54.3763C310.199 54.2452 309.486 53.9612 308.853 53.5422C308.43 53.2698 308.05 52.9352 307.727 52.5495C307.597 52.4183 307.495 52.2623 307.426 52.0908C307.891 52.5534 308.399 52.9697 308.944 53.3337C309.568 53.6923 310.252 53.9327 310.963 54.0427C311.831 54.1552 312.713 54.0668 313.541 53.7841C314.442 53.5088 315.276 53.1251 316.043 52.8832C316.758 52.6464 317.51 52.5446 318.262 52.5829C318.772 52.6166 319.268 52.7649 319.713 53.0167C320.047 53.2336 320.172 53.392 320.164 53.4087Z"
      fill="#3E485B"/>
    <path
      d="M289.325 49.8218C289.469 50.0871 289.646 50.3336 289.85 50.5559C290.152 50.8266 290.506 51.0329 290.891 51.162C291.275 51.2911 291.682 51.3403 292.086 51.3066C293.294 51.1438 294.409 50.5728 295.247 49.6884C296.282 48.7792 297.291 47.5363 298.818 46.8022C299.563 46.4482 300.395 46.3205 301.212 46.4352C301.964 46.5584 302.681 46.843 303.314 47.2693C304.371 47.9741 305.232 48.9355 305.816 50.0638C306.22 50.8015 306.569 51.5683 306.859 52.3577C306.987 52.6407 307.082 52.9373 307.143 53.2419C306.98 52.9778 306.843 52.6984 306.734 52.4077C306.4 51.6449 306.024 50.9014 305.608 50.1805C305.02 49.0968 304.175 48.1743 303.147 47.4946C302.548 47.1093 301.874 46.8562 301.17 46.7522C300.415 46.6531 299.647 46.7748 298.959 47.1025C297.533 47.7782 296.524 48.9877 295.464 49.9053C294.576 50.8271 293.398 51.416 292.128 51.5736C291.695 51.5945 291.263 51.5243 290.859 51.3677C290.455 51.2111 290.089 50.9715 289.784 50.6643C289.624 50.4926 289.5 50.2914 289.417 50.0721C289.37 49.9955 289.339 49.9105 289.325 49.8218Z"
      fill="#3E485B"/>
    <path
      d="M305.182 45.234C305.549 45.4395 305.866 45.7245 306.108 46.0682C306.738 46.8673 307.177 47.7999 307.391 48.7946C307.605 49.7893 307.588 50.8197 307.343 51.8071C307.269 52.2208 307.1 52.6119 306.851 52.9499C306.908 52.5445 306.991 52.1432 307.101 51.7487C307.275 50.7928 307.258 49.8119 307.051 48.8626C306.842 47.9138 306.454 47.0136 305.908 46.21C305.647 45.8995 305.404 45.5736 305.182 45.234Z"
      fill="#3E485B"/>
    <path
      d="M230.216 39.8704C230.216 39.8704 223.935 42.5814 224.452 47.4611C224.824 50.6276 225.512 53.749 226.504 56.7786C226.504 56.7786 216.636 49.2713 206.985 52.3076L206.927 54.5431C206.927 54.5431 213.85 53.709 219.781 56.9788C225.712 60.2487 233.486 71.9936 233.486 71.9936L252.981 63.2433L248.368 55.7359C248.368 55.7359 249.018 48.6039 249.127 46.6187C249.285 43.5823 245.548 31.8375 230.216 39.8704ZM246.624 44.8085C246.824 46.5436 245.356 49.1545 245.356 49.1545L243.313 44.3748L227.831 49.7217C227.831 49.7217 225.045 45.1005 230.7 42.0809C234.037 40.3041 237.665 40.1289 240.034 40.0205C241.135 39.9476 242.236 40.1532 243.236 40.6183C244.236 41.0834 245.103 41.7929 245.757 42.6815C246.219 43.3067 246.518 44.0381 246.624 44.8085Z"
      fill="#30569F"/>
    <path
      d="M249.027 36.7173L240.585 36.3419L233.661 39.3449C233.661 39.3449 233.978 40.4293 234.637 40.3459C235.958 40.0751 237.258 39.7071 238.525 39.2448L236.314 41.18L236.222 42.5981C236.222 42.5981 238.399 45.259 238.783 44.9754C239.111 44.6148 239.368 44.1961 239.542 43.7409L241.06 45.918H243.429L244.514 44.4582L245.69 45.3925C245.69 45.3925 248.651 48.0701 250.345 47.4528C251.329 47.0941 253.131 51.5152 253.131 51.5152L259.52 47.4945L255.224 42.1893L249.027 36.7173Z"
      fill="#D38D6E"/>
    <path
      d="M246.057 39.3699C245.58 39.5079 245.085 39.5753 244.589 39.5701L243.012 39.6618C242.729 39.6735 242.449 39.7212 242.178 39.8036C241.891 39.9518 241.613 40.1161 241.344 40.2958C240.777 40.6711 240.251 41.0632 239.784 41.4302C239.317 41.7973 238.95 42.1059 239.058 42.5063C239.292 43.3404 239.676 43.7825 239.609 43.8242C239.542 43.866 239.1 43.4989 238.775 42.5897C238.725 42.4511 238.711 42.3024 238.733 42.1569C238.754 42.0114 238.812 41.8735 238.9 41.7555C239.088 41.5198 239.304 41.307 239.542 41.1216C240.043 40.6944 240.569 40.2988 241.119 39.9371C241.409 39.7309 241.719 39.5548 242.045 39.4116C242.362 39.3073 242.695 39.2565 243.029 39.2614H244.639C245.114 39.2207 245.593 39.2573 246.057 39.3699Z"
      fill="#B26746"/>
    <path
      d="M243.43 45.993C243.371 45.993 243.588 45.5426 243.947 44.917C244.038 44.7585 244.13 44.5833 244.222 44.3998C244.261 44.3206 244.289 44.2364 244.305 44.1496C244.305 44.1496 244.305 44.1496 244.305 44.0995C244.288 44.0631 244.266 44.0294 244.239 43.9994C244.063 43.8713 243.851 43.8022 243.634 43.8022C243.417 43.8022 243.205 43.8713 243.029 43.9994L242.679 44.1746L242.412 44.3081L242.345 43.9994L242.17 43.1653C242.103 42.915 241.978 42.7232 241.845 42.6898L241.269 42.573L241.803 42.3311C242.328 42.0892 242.771 41.8974 243.088 41.7806C243.215 41.7282 243.346 41.6863 243.48 41.6555C243.588 41.6555 243.638 41.6555 243.63 41.7138C243.478 41.7945 243.33 41.8836 243.188 41.9808C242.904 42.1643 242.479 42.3979 241.97 42.6815L241.928 42.3144C242.09 42.3663 242.235 42.4599 242.35 42.5859C242.464 42.7118 242.543 42.8656 242.579 43.0318C242.654 43.3404 242.72 43.6407 242.796 43.9577L242.462 43.7825L242.837 43.5907C243.112 43.4532 243.415 43.3818 243.722 43.3822C243.879 43.3855 244.035 43.4212 244.178 43.4872C244.322 43.5533 244.45 43.6481 244.556 43.7659C244.608 43.8224 244.65 43.8873 244.681 43.9577C244.701 43.9922 244.718 44.0285 244.731 44.0662C244.744 44.1239 244.744 44.1836 244.731 44.2413C244.704 44.3706 244.656 44.4946 244.589 44.6084C244.487 44.7894 244.376 44.9648 244.255 45.1339C243.78 45.6844 243.48 46.0181 243.43 45.993Z"
      fill="#B26746"/>
    <path
      d="M245.69 37.5598C244.154 37.7772 242.602 37.8525 241.052 37.785L241.211 37.7266C241.06 37.8601 240.91 37.9935 240.752 38.1187C239.617 39.0279 238.558 39.787 237.791 40.3375C237.394 40.6702 236.957 40.9506 236.489 41.1717C236.389 41.0549 238.208 39.5618 240.46 37.785L240.902 37.418L240.969 37.3513H241.052C242.601 37.2832 244.153 37.353 245.69 37.5598Z"
      fill="#B26746"/>
    <path
      d="M204.241 54.5848C201.059 54.6532 197.956 55.5869 195.265 57.2858C192.574 58.9847 190.397 61.3846 188.967 64.2276C188.234 65.5052 187.941 66.9881 188.133 68.4485C188.433 69.8749 189.726 71.1761 191.178 71.0343C191.679 70.9464 192.158 70.7604 192.588 70.487C193.017 70.2136 193.388 69.8582 193.68 69.4411C195.615 67.0721 196.366 63.9857 197.509 61.0996C198.652 58.2134 200.512 55.3689 203.448 54.5264"
      fill="white"/>
    <path
      d="M204.474 67.9646C204.197 67.0443 203.857 66.1441 203.457 65.2703C202.833 63.7222 202.405 62.1027 202.18 60.4489L201.78 60.8243C200.063 63.1966 199.325 66.1389 199.72 69.0407C199.79 69.7368 200.006 70.4102 200.354 71.0176C200.53 71.3207 200.771 71.5815 201.06 71.7817C201.348 71.982 201.676 72.1169 202.022 72.1771C202.503 72.2119 202.982 72.0976 203.396 71.8498C203.809 71.6021 204.136 71.2328 204.332 70.7924C204.708 69.8952 204.758 68.8949 204.474 67.9646Z"
      fill="white"/>
    <path
      d="M195.866 74.8464C194.822 75.4592 193.884 76.2367 193.088 77.1487C192.694 77.6115 192.417 78.1626 192.282 78.7552C192.147 79.3478 192.158 79.9642 192.312 80.552C192.498 81.1266 192.902 81.6054 193.437 81.8861C193.971 82.1667 194.595 82.2268 195.173 82.0535C196.441 81.5197 196.708 79.843 196.483 78.4917C196.258 77.1404 195.724 75.7723 196.082 74.446"
      fill="white"/>
    <path
      d="M330.941 146.942L330.875 146.834L330.941 146.942L324.844 131.744L326.779 124.42L323.826 90.32L316.018 85.6153L315.643 82.579L313.499 82.9377L309.92 86.1659L280.399 73.028L261.105 46.4352L251.93 51.9406L269.647 85.5319L303.105 104.626L303.039 104.851C303.339 105.026 317.803 225.069 323.993 225.428C330.182 225.786 340.784 210.063 353.297 209.696C361.396 209.462 364.216 210.93 365.209 211.981C360.863 203.79 331.609 148.118 330.941 146.942Z"
      fill="white"/>
    <path
      d="M330.941 146.942C330.941 146.942 331.158 147.326 331.567 148.077L333.352 151.413L340.2 164.334C346.14 175.57 354.715 191.82 365.309 211.881L365.826 212.857L365.042 212.065C364.055 211.203 362.853 210.626 361.563 210.396C360.243 210.108 358.901 209.929 357.551 209.862C354.823 209.754 351.979 209.646 349.209 210.463C346.442 211.348 343.826 212.65 341.452 214.325C338.949 215.993 336.614 217.845 334.228 219.772C333.027 220.74 331.817 221.716 330.558 222.65C329.303 223.632 327.944 224.471 326.504 225.152C325.749 225.496 324.93 225.675 324.101 225.678C323.854 225.672 323.617 225.577 323.434 225.411C323.279 225.26 323.142 225.092 323.025 224.911C322.799 224.566 322.601 224.203 322.433 223.826C321.796 222.32 321.269 220.77 320.856 219.188C319.13 212.865 317.887 206.251 316.635 199.477C314.2 185.914 312.039 171.642 309.904 156.844C307.768 142.046 305.733 126.722 303.689 111.032C303.547 110.014 303.414 108.997 303.281 107.979L303.072 106.452L302.964 105.693L302.905 105.318V105.135V105.043V105.001C302.924 105.041 302.957 105.074 302.997 105.093L302.897 104.826L302.964 104.601L303.072 104.859L269.614 85.7655H269.555V85.7071L251.763 52.0324L251.671 51.8572L251.846 51.7571L261.022 46.26L261.189 46.1599L261.297 46.3184L280.558 72.9195L280.483 72.8528L310.021 86.0157L309.787 86.1993V86.1075L309.854 86.0408L313.407 82.7792H313.457L315.601 82.4289H315.76V82.5957L316.127 85.6237L316.052 85.5153L323.859 90.2199L323.943 90.3367C325.11 104.075 326.086 115.553 326.837 124.445V124.487C326.003 127.498 325.436 129.75 324.894 131.802V131.752C326.846 136.674 328.339 140.428 329.348 142.98C330.357 145.533 330.883 146.892 330.916 147.009L330.85 146.901L330.908 147.009L330.841 146.901L330.9 147.009C330.841 146.901 330.282 145.558 329.231 143.013L324.768 131.744V131.694C325.302 129.634 325.895 127.381 326.679 124.37C325.895 115.478 324.885 104 323.684 90.2699L323.759 90.3951L315.943 85.6988H315.876V85.6237L315.501 82.5874L315.684 82.7292L313.541 83.0879H313.624L310.079 86.3577L310.129 86.1993L310.196 86.5079L309.904 86.3828L280.324 73.2032H280.274L260.939 46.5603L261.214 46.6187L252.038 52.1158L252.113 51.8405L269.881 85.4235L269.789 85.3401L303.247 104.426L303.406 104.517L303.347 104.692L303.281 104.918L303.172 104.659C303.223 104.693 303.261 104.743 303.281 104.801V104.851V104.901V105.001V105.193L303.339 105.577L303.447 106.344L303.656 107.871C303.789 108.888 303.923 109.906 304.065 110.924C306.117 126.614 308.152 141.937 310.271 156.735C312.39 171.533 314.55 185.797 316.944 199.352C318.187 206.117 319.447 212.699 321.115 219.03C321.524 220.591 322.042 222.121 322.666 223.609C322.824 223.966 323.011 224.309 323.225 224.635C323.442 224.944 323.692 225.261 323.993 225.228C324.765 225.229 325.528 225.061 326.228 224.735C327.641 224.077 328.976 223.263 330.207 222.308C331.458 221.374 332.66 220.406 333.861 219.439C336.255 217.512 338.632 215.618 341.126 213.983C343.579 212.301 346.278 211.01 349.126 210.154C350.503 209.762 351.924 209.541 353.355 209.495C354.765 209.495 356.158 209.495 357.526 209.554C358.911 209.637 360.287 209.838 361.638 210.154C362.99 210.387 364.251 210.987 365.284 211.889L365.017 212.081C354.481 191.987 345.948 175.721 340.042 164.468L333.277 151.48C332.509 149.995 331.917 148.869 331.525 148.143C331.133 147.418 330.941 146.942 330.941 146.942Z"
      fill="#E0E0E0"/>
    <path
      d="M314.583 109.289C313.928 109.416 313.249 109.328 312.648 109.038C311.175 108.523 309.735 107.918 308.335 107.228C306.667 106.394 305.224 105.685 304.165 105.151C303.578 104.906 303.018 104.598 302.496 104.234C303.133 104.361 303.75 104.571 304.331 104.859C305.441 105.318 306.934 106.027 308.577 106.82C310.221 107.612 311.705 108.288 312.807 108.738C313.383 108.97 313.977 109.155 314.583 109.289Z"
      fill="#263238"/>
    <path
      d="M322.208 98.2028C322.098 97.3099 321.937 96.4242 321.724 95.5502C321.105 93.4771 319.806 91.6729 318.037 90.4285C316.21 89.2443 314.301 88.1934 312.323 87.2837C311.484 86.921 310.691 86.4589 309.962 85.9073C310.815 86.225 311.65 86.5869 312.465 86.9917C314.505 87.8241 316.461 88.8522 318.304 90.0614C320.156 91.3559 321.48 93.275 322.032 95.4667C322.202 96.1205 322.286 96.7934 322.283 97.4687C322.3 97.7159 322.274 97.9642 322.208 98.2028Z"
      fill="#263238"/>
    <path
      d="M323.067 138.876C323.034 137.607 323.186 136.34 323.517 135.114C323.705 133.86 324.082 132.642 324.635 131.502C324.519 132.757 324.292 133.999 323.959 135.214C323.779 136.46 323.48 137.687 323.067 138.876Z"
      fill="#263238"/>
    <path
      d="M328.422 155.3C328.125 155.842 327.715 156.314 327.221 156.685C326.079 157.658 324.734 158.362 323.284 158.746C321.832 159.128 320.313 159.182 318.837 158.904C318.225 158.828 317.636 158.62 317.111 158.295C317.111 158.22 317.795 158.445 318.896 158.587C321.781 158.953 324.695 158.181 327.021 156.435C327.905 155.768 328.364 155.242 328.422 155.3Z"
      fill="#263238"/>
    <path
      d="M353.297 200.462C352.915 200.567 352.524 200.632 352.129 200.653C351.753 200.704 351.295 200.745 350.752 200.77C350.21 200.795 349.601 200.837 348.926 200.82C347.332 200.824 345.74 200.712 344.163 200.487C340.292 199.937 336.538 198.754 333.052 196.983C331.63 196.263 330.262 195.444 328.956 194.531C328.389 194.155 327.922 193.763 327.488 193.438C327.054 193.113 326.712 192.812 326.428 192.554C326.123 192.304 325.844 192.025 325.594 191.72C325.644 191.653 326.904 192.762 329.148 194.222C330.463 195.088 331.831 195.871 333.243 196.566C336.71 198.275 340.418 199.443 344.238 200.028C345.793 200.266 347.361 200.411 348.934 200.462C351.628 200.57 353.297 200.378 353.297 200.462Z"
      fill="#263238"/>
    <path
      d="M365.367 212.123C365.367 212.123 365.25 212.056 365.058 211.906C364.798 211.667 364.519 211.449 364.224 211.255C363.111 210.552 361.878 210.057 360.587 209.796C358.668 209.401 356.703 209.275 354.748 209.42C352.353 209.558 349.987 210.021 347.716 210.797C342.845 212.465 339.216 215.493 336.655 217.628L333.644 220.248C333.293 220.588 332.914 220.898 332.51 221.174C332.82 220.794 333.16 220.44 333.527 220.114C334.203 219.455 335.196 218.513 336.447 217.386C337.92 216.063 339.468 214.827 341.085 213.683C343.075 212.267 345.257 211.143 347.566 210.346C349.876 209.558 352.285 209.097 354.723 208.978C356.713 208.848 358.712 209.011 360.654 209.462C361.97 209.757 363.215 210.31 364.316 211.089C364.619 211.301 364.898 211.544 365.15 211.814C365.3 212.015 365.384 212.115 365.367 212.123Z"
      fill="#263238"/>
    <path
      d="M333.711 170.832C333.711 170.832 333.711 170.924 333.602 171.083C333.474 171.31 333.329 171.527 333.168 171.733C332.561 172.498 331.806 173.133 330.95 173.602C329.675 174.299 328.228 174.617 326.779 174.519C324.993 174.343 323.315 173.58 322.007 172.351C320.702 171.155 319.674 169.689 318.996 168.055C318.448 166.734 318.034 165.362 317.761 163.959C317.528 162.766 317.394 161.799 317.311 161.131C317.248 160.785 317.22 160.432 317.228 160.08C317.351 160.409 317.438 160.75 317.486 161.098C317.62 161.757 317.803 162.724 318.078 163.892C318.389 165.261 318.825 166.599 319.38 167.888C320.052 169.456 321.05 170.863 322.308 172.017C323.546 173.178 325.126 173.909 326.812 174.102C328.195 174.218 329.582 173.943 330.816 173.31C331.947 172.7 332.934 171.855 333.711 170.832Z"
      fill="#263238"/>
    <path d="M275.044 184.604L259.229 387.637L269.505 387.454L287.298 184.471L275.044 184.604Z" fill="#3E485B"/>
    <path d="M290.551 184.438L278.506 184.604L338.465 387.404H350.294L290.551 184.438Z" fill="#3E485B"/>
    <path d="M275.995 278.021H309.203L311.981 285.921H273.743L275.995 278.021Z" fill="#3E485B"/>
    <path
      d="M284.161 179.658L274.368 180.742L268.387 184.488C268.387 184.488 268.271 185.705 269.972 185.514L273.309 184.087L270.64 187.007C270.746 187.179 270.888 187.326 271.056 187.44C271.224 187.553 271.414 187.629 271.614 187.663C271.814 187.697 272.018 187.688 272.214 187.636C272.41 187.585 272.593 187.493 272.75 187.365C273.665 186.837 274.471 186.141 275.127 185.313L281.017 184.896C281.017 184.896 276.562 189.175 277.38 190.293C278.197 191.411 278.731 191.169 279.373 190.76C280.016 190.352 280.366 188.942 281.834 188.475C283.302 188.008 285.721 186.64 288.341 185.397C290.593 184.329 292.887 176.688 292.887 176.688L285.379 175.22L284.161 179.658Z"
      fill="#D38D6E"/>
    <path
      d="M280.266 182.16C278.439 182.658 276.576 183.015 274.694 183.228H274.61L274.735 183.161C273.488 184.549 272.13 185.832 270.673 186.998C271.805 185.511 273.055 184.116 274.41 182.827L274.469 182.769H274.627C276.487 182.414 278.373 182.21 280.266 182.16Z"
      fill="#B26746"/>
    <path
      d="M367.97 387.404C367.97 387.529 289.116 387.637 191.87 387.637C94.6236 387.637 15.7537 387.529 15.7537 387.404C15.7537 387.279 94.5902 387.178 191.87 387.178C289.15 387.178 367.97 387.279 367.97 387.404Z"
      fill="#263238"/>
  </g>
  <defs>
    <filter id="filter0_d" x="-3" y="0" width="418" height="409" filterUnits="userSpaceOnUse"
            color-interpolation-filters="sRGB">
      <feFlood flood-opacity="0" result="BackgroundImageFix"/>
      <feColorMatrix in="SourceAlpha" type="matrix" values="0 0 0 0 0 0 0 0 0 0 0 0 0 0 0 0 0 0 127 0"/>
      <feOffset dy="4"/>
      <feGaussianBlur stdDeviation="7.5"/>
      <feColorMatrix type="matrix" values="0 0 0 0 0 0 0 0 0 0 0 0 0 0 0 0 0 0 0.15 0"/>
      <feBlend mode="normal" in2="BackgroundImageFix" result="effect1_dropShadow"/>
      <feBlend mode="normal" in="SourceGraphic" in2="effect1_dropShadow" result="shape"/>
    </filter>
  </defs>
</svg>
