<svg width="466" height="605" viewBox="0 0 466 605" fill="none" xmlns="http://www.w3.org/2000/svg">
<rect x="11" width="5" height="5" fill="#D6DCE8"/>
<rect x="41" width="5" height="5" fill="#D6DCE8"/>
<rect x="71" width="5" height="5" fill="#D6DCE8"/>
<rect x="101" width="5" height="5" fill="#D6DCE8"/>
<rect x="131" width="5" height="5" fill="#D6DCE8"/>
<rect x="161" width="5" height="5" fill="#D6DCE8"/>
<rect x="191" width="5" height="5" fill="#D6DCE8"/>
<rect x="221" width="5" height="5" fill="#D6DCE8"/>
<rect x="251" width="5" height="5" fill="#D6DCE8"/>
<rect x="281" width="5" height="5" fill="#D6DCE8"/>
<rect x="311" width="5" height="5" fill="#D6DCE8"/>
<rect x="341" width="5" height="5" fill="#D6DCE8"/>
<rect x="371" width="5" height="5" fill="#D6DCE8"/>
<rect x="401" width="5" height="5" fill="#D6DCE8"/>
<rect x="431" width="5" height="5" fill="#D6DCE8"/>
<rect x="461" width="5" height="5" fill="#D6DCE8"/>
<rect x="11" y="30" width="5" height="5" fill="#D6DCE8"/>
<rect x="41" y="30" width="5" height="5" fill="#D6DCE8"/>
<rect x="71" y="30" width="5" height="5" fill="#D6DCE8"/>
<rect x="101" y="30" width="5" height="5" fill="#D6DCE8"/>
<rect x="131" y="30" width="5" height="5" fill="#D6DCE8"/>
<rect x="161" y="30" width="5" height="5" fill="#D6DCE8"/>
<rect x="191" y="30" width="5" height="5" fill="#D6DCE8"/>
<rect x="221" y="30" width="5" height="5" fill="#D6DCE8"/>
<rect x="251" y="30" width="5" height="5" fill="#D6DCE8"/>
<rect x="281" y="30" width="5" height="5" fill="#D6DCE8"/>
<rect x="311" y="30" width="5" height="5" fill="#D6DCE8"/>
<rect x="341" y="30" width="5" height="5" fill="#D6DCE8"/>
<rect x="371" y="30" width="5" height="5" fill="#D6DCE8"/>
<rect x="401" y="30" width="5" height="5" fill="#D6DCE8"/>
<rect x="431" y="30" width="5" height="5" fill="#D6DCE8"/>
<rect x="461" y="30" width="5" height="5" fill="#D6DCE8"/>
<rect x="11" y="60" width="5" height="5" fill="#D6DCE8"/>
<rect x="41" y="60" width="5" height="5" fill="#D6DCE8"/>
<rect x="71" y="60" width="5" height="5" fill="#D6DCE8"/>
<rect x="101" y="60" width="5" height="5" fill="#D6DCE8"/>
<rect x="131" y="60" width="5" height="5" fill="#D6DCE8"/>
<rect x="161" y="60" width="5" height="5" fill="#D6DCE8"/>
<rect x="191" y="60" width="5" height="5" fill="#D6DCE8"/>
<rect x="221" y="60" width="5" height="5" fill="#D6DCE8"/>
<rect x="251" y="60" width="5" height="5" fill="#D6DCE8"/>
<rect x="281" y="60" width="5" height="5" fill="#D6DCE8"/>
<rect x="311" y="60" width="5" height="5" fill="#D6DCE8"/>
<rect x="341" y="60" width="5" height="5" fill="#D6DCE8"/>
<rect x="371" y="60" width="5" height="5" fill="#D6DCE8"/>
<rect x="401" y="60" width="5" height="5" fill="#D6DCE8"/>
<rect x="431" y="60" width="5" height="5" fill="#D6DCE8"/>
<rect x="461" y="60" width="5" height="5" fill="#D6DCE8"/>
<rect x="11" y="90" width="5" height="5" fill="#D6DCE8"/>
<rect x="41" y="90" width="5" height="5" fill="#D6DCE8"/>
<rect x="71" y="90" width="5" height="5" fill="#D6DCE8"/>
<rect x="101" y="90" width="5" height="5" fill="#D6DCE8"/>
<rect x="131" y="90" width="5" height="5" fill="#D6DCE8"/>
<rect x="161" y="90" width="5" height="5" fill="#D6DCE8"/>
<rect x="191" y="90" width="5" height="5" fill="#D6DCE8"/>
<rect x="221" y="90" width="5" height="5" fill="#D6DCE8"/>
<rect x="251" y="90" width="5" height="5" fill="#D6DCE8"/>
<rect x="281" y="90" width="5" height="5" fill="#D6DCE8"/>
<rect x="311" y="90" width="5" height="5" fill="#D6DCE8"/>
<rect x="341" y="90" width="5" height="5" fill="#D6DCE8"/>
<rect x="371" y="90" width="5" height="5" fill="#D6DCE8"/>
<rect x="401" y="90" width="5" height="5" fill="#D6DCE8"/>
<rect x="431" y="90" width="5" height="5" fill="#D6DCE8"/>
<rect x="461" y="90" width="5" height="5" fill="#D6DCE8"/>
<rect x="11" y="120" width="5" height="5" fill="#D6DCE8"/>
<rect x="41" y="120" width="5" height="5" fill="#D6DCE8"/>
<rect x="71" y="120" width="5" height="5" fill="#D6DCE8"/>
<rect x="101" y="120" width="5" height="5" fill="#D6DCE8"/>
<rect x="131" y="120" width="5" height="5" fill="#D6DCE8"/>
<rect x="161" y="120" width="5" height="5" fill="#D6DCE8"/>
<rect x="191" y="120" width="5" height="5" fill="#D6DCE8"/>
<rect x="221" y="120" width="5" height="5" fill="#D6DCE8"/>
<rect x="251" y="120" width="5" height="5" fill="#D6DCE8"/>
<rect x="281" y="120" width="5" height="5" fill="#D6DCE8"/>
<rect x="311" y="120" width="5" height="5" fill="#D6DCE8"/>
<rect x="341" y="120" width="5" height="5" fill="#D6DCE8"/>
<rect x="371" y="120" width="5" height="5" fill="#D6DCE8"/>
<rect x="401" y="120" width="5" height="5" fill="#D6DCE8"/>
<rect x="431" y="120" width="5" height="5" fill="#D6DCE8"/>
<rect x="461" y="120" width="5" height="5" fill="#D6DCE8"/>
<rect x="11" y="150" width="5" height="5" fill="#D6DCE8"/>
<rect x="41" y="150" width="5" height="5" fill="#D6DCE8"/>
<rect x="71" y="150" width="5" height="5" fill="#D6DCE8"/>
<rect x="101" y="150" width="5" height="5" fill="#D6DCE8"/>
<rect x="131" y="150" width="5" height="5" fill="#D6DCE8"/>
<rect x="161" y="150" width="5" height="5" fill="#D6DCE8"/>
<rect x="191" y="150" width="5" height="5" fill="#D6DCE8"/>
<rect x="221" y="150" width="5" height="5" fill="#D6DCE8"/>
<rect x="251" y="150" width="5" height="5" fill="#D6DCE8"/>
<rect x="281" y="150" width="5" height="5" fill="#D6DCE8"/>
<rect x="311" y="150" width="5" height="5" fill="#D6DCE8"/>
<rect x="341" y="150" width="5" height="5" fill="#D6DCE8"/>
<rect x="371" y="150" width="5" height="5" fill="#D6DCE8"/>
<rect x="401" y="150" width="5" height="5" fill="#D6DCE8"/>
<rect x="431" y="150" width="5" height="5" fill="#D6DCE8"/>
<rect x="461" y="150" width="5" height="5" fill="#D6DCE8"/>
<rect x="11" y="180" width="5" height="5" fill="#D6DCE8"/>
<rect x="41" y="180" width="5" height="5" fill="#D6DCE8"/>
<rect x="71" y="180" width="5" height="5" fill="#D6DCE8"/>
<rect x="101" y="180" width="5" height="5" fill="#D6DCE8"/>
<rect x="131" y="180" width="5" height="5" fill="#D6DCE8"/>
<rect x="161" y="180" width="5" height="5" fill="#D6DCE8"/>
<rect x="191" y="180" width="5" height="5" fill="#D6DCE8"/>
<rect x="221" y="180" width="5" height="5" fill="#D6DCE8"/>
<rect x="251" y="180" width="5" height="5" fill="#D6DCE8"/>
<rect x="281" y="180" width="5" height="5" fill="#D6DCE8"/>
<rect x="311" y="180" width="5" height="5" fill="#D6DCE8"/>
<rect x="341" y="180" width="5" height="5" fill="#D6DCE8"/>
<rect x="371" y="180" width="5" height="5" fill="#D6DCE8"/>
<rect x="401" y="180" width="5" height="5" fill="#D6DCE8"/>
<rect x="431" y="180" width="5" height="5" fill="#D6DCE8"/>
<rect x="461" y="180" width="5" height="5" fill="#D6DCE8"/>
<rect x="11" y="210" width="5" height="5" fill="#D6DCE8"/>
<rect x="41" y="210" width="5" height="5" fill="#D6DCE8"/>
<rect x="71" y="210" width="5" height="5" fill="#D6DCE8"/>
<rect x="101" y="210" width="5" height="5" fill="#D6DCE8"/>
<rect x="131" y="210" width="5" height="5" fill="#D6DCE8"/>
<rect x="161" y="210" width="5" height="5" fill="#D6DCE8"/>
<rect x="191" y="210" width="5" height="5" fill="#D6DCE8"/>
<rect x="221" y="210" width="5" height="5" fill="#D6DCE8"/>
<rect x="251" y="210" width="5" height="5" fill="#D6DCE8"/>
<rect x="281" y="210" width="5" height="5" fill="#D6DCE8"/>
<rect x="311" y="210" width="5" height="5" fill="#D6DCE8"/>
<rect x="341" y="210" width="5" height="5" fill="#D6DCE8"/>
<rect x="371" y="210" width="5" height="5" fill="#D6DCE8"/>
<rect x="401" y="210" width="5" height="5" fill="#D6DCE8"/>
<rect x="431" y="210" width="5" height="5" fill="#D6DCE8"/>
<rect x="461" y="210" width="5" height="5" fill="#D6DCE8"/>
<rect x="11" y="240" width="5" height="5" fill="#D6DCE8"/>
<rect x="41" y="240" width="5" height="5" fill="#D6DCE8"/>
<rect x="71" y="240" width="5" height="5" fill="#D6DCE8"/>
<rect x="101" y="240" width="5" height="5" fill="#D6DCE8"/>
<rect x="131" y="240" width="5" height="5" fill="#D6DCE8"/>
<rect x="161" y="240" width="5" height="5" fill="#D6DCE8"/>
<rect x="191" y="240" width="5" height="5" fill="#D6DCE8"/>
<rect x="221" y="240" width="5" height="5" fill="#D6DCE8"/>
<rect x="251" y="240" width="5" height="5" fill="#D6DCE8"/>
<rect x="281" y="240" width="5" height="5" fill="#D6DCE8"/>
<rect x="311" y="240" width="5" height="5" fill="#D6DCE8"/>
<rect x="341" y="240" width="5" height="5" fill="#D6DCE8"/>
<rect x="371" y="240" width="5" height="5" fill="#D6DCE8"/>
<rect x="401" y="240" width="5" height="5" fill="#D6DCE8"/>
<rect x="431" y="240" width="5" height="5" fill="#D6DCE8"/>
<rect x="461" y="240" width="5" height="5" fill="#D6DCE8"/>
<rect x="11" y="270" width="5" height="5" fill="#D6DCE8"/>
<rect x="41" y="270" width="5" height="5" fill="#D6DCE8"/>
<rect x="71" y="270" width="5" height="5" fill="#D6DCE8"/>
<rect x="101" y="270" width="5" height="5" fill="#D6DCE8"/>
<rect x="131" y="270" width="5" height="5" fill="#D6DCE8"/>
<rect x="161" y="270" width="5" height="5" fill="#D6DCE8"/>
<rect x="191" y="270" width="5" height="5" fill="#D6DCE8"/>
<rect x="221" y="270" width="5" height="5" fill="#D6DCE8"/>
<rect x="251" y="270" width="5" height="5" fill="#D6DCE8"/>
<rect x="281" y="270" width="5" height="5" fill="#D6DCE8"/>
<rect x="311" y="270" width="5" height="5" fill="#D6DCE8"/>
<rect x="341" y="270" width="5" height="5" fill="#D6DCE8"/>
<rect x="371" y="270" width="5" height="5" fill="#D6DCE8"/>
<rect x="401" y="270" width="5" height="5" fill="#D6DCE8"/>
<rect x="431" y="270" width="5" height="5" fill="#D6DCE8"/>
<rect x="461" y="270" width="5" height="5" fill="#D6DCE8"/>
<rect x="11" y="300" width="5" height="5" fill="#D6DCE8"/>
<rect x="41" y="300" width="5" height="5" fill="#D6DCE8"/>
<rect x="71" y="300" width="5" height="5" fill="#D6DCE8"/>
<rect x="101" y="300" width="5" height="5" fill="#D6DCE8"/>
<rect x="131" y="300" width="5" height="5" fill="#D6DCE8"/>
<rect x="161" y="300" width="5" height="5" fill="#D6DCE8"/>
<rect x="191" y="300" width="5" height="5" fill="#D6DCE8"/>
<rect x="221" y="300" width="5" height="5" fill="#D6DCE8"/>
<rect x="251" y="300" width="5" height="5" fill="#D6DCE8"/>
<rect x="281" y="300" width="5" height="5" fill="#D6DCE8"/>
<rect x="311" y="300" width="5" height="5" fill="#D6DCE8"/>
<rect x="341" y="300" width="5" height="5" fill="#D6DCE8"/>
<rect x="371" y="300" width="5" height="5" fill="#D6DCE8"/>
<rect x="401" y="300" width="5" height="5" fill="#D6DCE8"/>
<rect x="431" y="300" width="5" height="5" fill="#D6DCE8"/>
<rect x="461" y="300" width="5" height="5" fill="#D6DCE8"/>
<rect x="11" y="330" width="5" height="5" fill="#D6DCE8"/>
<rect x="41" y="330" width="5" height="5" fill="#D6DCE8"/>
<rect x="71" y="330" width="5" height="5" fill="#D6DCE8"/>
<rect x="101" y="330" width="5" height="5" fill="#D6DCE8"/>
<rect x="131" y="330" width="5" height="5" fill="#D6DCE8"/>
<rect x="161" y="330" width="5" height="5" fill="#D6DCE8"/>
<rect x="191" y="330" width="5" height="5" fill="#D6DCE8"/>
<rect x="221" y="330" width="5" height="5" fill="#D6DCE8"/>
<rect x="251" y="330" width="5" height="5" fill="#D6DCE8"/>
<rect x="281" y="330" width="5" height="5" fill="#D6DCE8"/>
<rect x="311" y="330" width="5" height="5" fill="#D6DCE8"/>
<rect x="341" y="330" width="5" height="5" fill="#D6DCE8"/>
<rect x="371" y="330" width="5" height="5" fill="#D6DCE8"/>
<rect x="401" y="330" width="5" height="5" fill="#D6DCE8"/>
<rect x="431" y="330" width="5" height="5" fill="#D6DCE8"/>
<rect x="461" y="330" width="5" height="5" fill="#D6DCE8"/>
<rect x="11" y="360" width="5" height="5" fill="#D6DCE8"/>
<rect x="41" y="360" width="5" height="5" fill="#D6DCE8"/>
<rect x="71" y="360" width="5" height="5" fill="#D6DCE8"/>
<rect x="101" y="360" width="5" height="5" fill="#D6DCE8"/>
<rect x="131" y="360" width="5" height="5" fill="#D6DCE8"/>
<rect x="161" y="360" width="5" height="5" fill="#D6DCE8"/>
<rect x="191" y="360" width="5" height="5" fill="#D6DCE8"/>
<rect x="221" y="360" width="5" height="5" fill="#D6DCE8"/>
<rect x="251" y="360" width="5" height="5" fill="#D6DCE8"/>
<rect x="281" y="360" width="5" height="5" fill="#D6DCE8"/>
<rect x="311" y="360" width="5" height="5" fill="#D6DCE8"/>
<rect x="341" y="360" width="5" height="5" fill="#D6DCE8"/>
<rect x="371" y="360" width="5" height="5" fill="#D6DCE8"/>
<rect x="401" y="360" width="5" height="5" fill="#D6DCE8"/>
<rect x="431" y="360" width="5" height="5" fill="#D6DCE8"/>
<rect x="461" y="360" width="5" height="5" fill="#D6DCE8"/>
<rect x="11" y="390" width="5" height="5" fill="#D6DCE8"/>
<rect x="41" y="390" width="5" height="5" fill="#D6DCE8"/>
<rect x="71" y="390" width="5" height="5" fill="#D6DCE8"/>
<rect x="101" y="390" width="5" height="5" fill="#D6DCE8"/>
<rect x="131" y="390" width="5" height="5" fill="#D6DCE8"/>
<rect x="161" y="390" width="5" height="5" fill="#D6DCE8"/>
<rect x="191" y="390" width="5" height="5" fill="#D6DCE8"/>
<rect x="221" y="390" width="5" height="5" fill="#D6DCE8"/>
<rect x="251" y="390" width="5" height="5" fill="#D6DCE8"/>
<rect x="281" y="390" width="5" height="5" fill="#D6DCE8"/>
<rect x="311" y="390" width="5" height="5" fill="#D6DCE8"/>
<rect x="341" y="390" width="5" height="5" fill="#D6DCE8"/>
<rect x="371" y="390" width="5" height="5" fill="#D6DCE8"/>
<rect x="401" y="390" width="5" height="5" fill="#D6DCE8"/>
<rect x="431" y="390" width="5" height="5" fill="#D6DCE8"/>
<rect x="461" y="390" width="5" height="5" fill="#D6DCE8"/>
<rect x="11" y="420" width="5" height="5" fill="#D6DCE8"/>
<rect x="41" y="420" width="5" height="5" fill="#D6DCE8"/>
<rect x="71" y="420" width="5" height="5" fill="#D6DCE8"/>
<rect x="101" y="420" width="5" height="5" fill="#D6DCE8"/>
<rect x="131" y="420" width="5" height="5" fill="#D6DCE8"/>
<rect x="161" y="420" width="5" height="5" fill="#D6DCE8"/>
<rect x="191" y="420" width="5" height="5" fill="#D6DCE8"/>
<rect x="221" y="420" width="5" height="5" fill="#D6DCE8"/>
<rect x="251" y="420" width="5" height="5" fill="#D6DCE8"/>
<rect x="281" y="420" width="5" height="5" fill="#D6DCE8"/>
<rect x="311" y="420" width="5" height="5" fill="#D6DCE8"/>
<rect x="341" y="420" width="5" height="5" fill="#D6DCE8"/>
<rect x="371" y="420" width="5" height="5" fill="#D6DCE8"/>
<rect x="401" y="420" width="5" height="5" fill="#D6DCE8"/>
<rect x="431" y="420" width="5" height="5" fill="#D6DCE8"/>
<rect x="461" y="420" width="5" height="5" fill="#D6DCE8"/>
<rect x="11" y="450" width="5" height="5" fill="#D6DCE8"/>
<rect x="41" y="450" width="5" height="5" fill="#D6DCE8"/>
<rect x="71" y="450" width="5" height="5" fill="#D6DCE8"/>
<rect x="101" y="450" width="5" height="5" fill="#D6DCE8"/>
<rect x="131" y="450" width="5" height="5" fill="#D6DCE8"/>
<rect x="161" y="450" width="5" height="5" fill="#D6DCE8"/>
<rect x="191" y="450" width="5" height="5" fill="#D6DCE8"/>
<rect x="221" y="450" width="5" height="5" fill="#D6DCE8"/>
<rect x="251" y="450" width="5" height="5" fill="#D6DCE8"/>
<rect x="281" y="450" width="5" height="5" fill="#D6DCE8"/>
<rect x="311" y="450" width="5" height="5" fill="#D6DCE8"/>
<rect x="341" y="450" width="5" height="5" fill="#D6DCE8"/>
<rect x="371" y="450" width="5" height="5" fill="#D6DCE8"/>
<rect x="401" y="450" width="5" height="5" fill="#D6DCE8"/>
<rect x="431" y="450" width="5" height="5" fill="#D6DCE8"/>
<rect x="461" y="450" width="5" height="5" fill="#D6DCE8"/>
<rect x="11" y="480" width="5" height="5" fill="#D6DCE8"/>
<rect x="41" y="480" width="5" height="5" fill="#D6DCE8"/>
<rect x="71" y="480" width="5" height="5" fill="#D6DCE8"/>
<rect x="101" y="480" width="5" height="5" fill="#D6DCE8"/>
<rect x="131" y="480" width="5" height="5" fill="#D6DCE8"/>
<rect x="161" y="480" width="5" height="5" fill="#D6DCE8"/>
<rect x="191" y="480" width="5" height="5" fill="#D6DCE8"/>
<rect x="221" y="480" width="5" height="5" fill="#D6DCE8"/>
<rect x="251" y="480" width="5" height="5" fill="#D6DCE8"/>
<rect x="281" y="480" width="5" height="5" fill="#D6DCE8"/>
<rect x="311" y="480" width="5" height="5" fill="#D6DCE8"/>
<rect x="341" y="480" width="5" height="5" fill="#D6DCE8"/>
<rect x="371" y="480" width="5" height="5" fill="#D6DCE8"/>
<rect x="401" y="480" width="5" height="5" fill="#D6DCE8"/>
<rect x="431" y="480" width="5" height="5" fill="#D6DCE8"/>
<rect x="461" y="480" width="5" height="5" fill="#D6DCE8"/>
<rect x="11" y="510" width="5" height="5" fill="#D6DCE8"/>
<rect x="41" y="510" width="5" height="5" fill="#D6DCE8"/>
<rect x="71" y="510" width="5" height="5" fill="#D6DCE8"/>
<rect x="101" y="510" width="5" height="5" fill="#D6DCE8"/>
<rect x="131" y="510" width="5" height="5" fill="#D6DCE8"/>
<rect x="161" y="510" width="5" height="5" fill="#D6DCE8"/>
<rect x="191" y="510" width="5" height="5" fill="#D6DCE8"/>
<rect x="221" y="510" width="5" height="5" fill="#D6DCE8"/>
<rect x="251" y="510" width="5" height="5" fill="#D6DCE8"/>
<rect x="281" y="510" width="5" height="5" fill="#D6DCE8"/>
<rect x="311" y="510" width="5" height="5" fill="#D6DCE8"/>
<rect x="341" y="510" width="5" height="5" fill="#D6DCE8"/>
<rect x="371" y="510" width="5" height="5" fill="#D6DCE8"/>
<rect x="401" y="510" width="5" height="5" fill="#D6DCE8"/>
<rect x="431" y="510" width="5" height="5" fill="#D6DCE8"/>
<rect x="461" y="510" width="5" height="5" fill="#D6DCE8"/>
<rect x="11" y="540" width="5" height="5" fill="#D6DCE8"/>
<rect x="41" y="540" width="5" height="5" fill="#D6DCE8"/>
<rect x="71" y="540" width="5" height="5" fill="#D6DCE8"/>
<rect x="101" y="540" width="5" height="5" fill="#D6DCE8"/>
<rect x="131" y="540" width="5" height="5" fill="#D6DCE8"/>
<rect x="161" y="540" width="5" height="5" fill="#D6DCE8"/>
<rect x="191" y="540" width="5" height="5" fill="#D6DCE8"/>
<rect x="221" y="540" width="5" height="5" fill="#D6DCE8"/>
<rect x="251" y="540" width="5" height="5" fill="#D6DCE8"/>
<rect x="281" y="540" width="5" height="5" fill="#D6DCE8"/>
<rect x="311" y="540" width="5" height="5" fill="#D6DCE8"/>
<rect x="341" y="540" width="5" height="5" fill="#D6DCE8"/>
<rect x="371" y="540" width="5" height="5" fill="#D6DCE8"/>
<rect x="401" y="540" width="5" height="5" fill="#D6DCE8"/>
<rect x="431" y="540" width="5" height="5" fill="#D6DCE8"/>
<rect x="461" y="540" width="5" height="5" fill="#D6DCE8"/>
<rect x="11" y="570" width="5" height="5" fill="#D6DCE8"/>
<rect x="41" y="570" width="5" height="5" fill="#D6DCE8"/>
<rect x="71" y="570" width="5" height="5" fill="#D6DCE8"/>
<rect x="101" y="570" width="5" height="5" fill="#D6DCE8"/>
<rect x="131" y="570" width="5" height="5" fill="#D6DCE8"/>
<rect x="161" y="570" width="5" height="5" fill="#D6DCE8"/>
<rect x="191" y="570" width="5" height="5" fill="#D6DCE8"/>
<rect x="221" y="570" width="5" height="5" fill="#D6DCE8"/>
<rect x="251" y="570" width="5" height="5" fill="#D6DCE8"/>
<rect x="281" y="570" width="5" height="5" fill="#D6DCE8"/>
<rect x="311" y="570" width="5" height="5" fill="#D6DCE8"/>
<rect x="341" y="570" width="5" height="5" fill="#D6DCE8"/>
<rect x="371" y="570" width="5" height="5" fill="#D6DCE8"/>
<rect x="401" y="570" width="5" height="5" fill="#D6DCE8"/>
<rect x="431" y="570" width="5" height="5" fill="#D6DCE8"/>
<rect x="461" y="570" width="5" height="5" fill="#D6DCE8"/>
<rect x="11" y="600" width="5" height="5" fill="#D6DCE8"/>
<rect x="41" y="600" width="5" height="5" fill="#D6DCE8"/>
<rect x="71" y="600" width="5" height="5" fill="#D6DCE8"/>
<rect x="101" y="600" width="5" height="5" fill="#D6DCE8"/>
<rect x="131" y="600" width="5" height="5" fill="#D6DCE8"/>
<rect x="161" y="600" width="5" height="5" fill="#D6DCE8"/>
<rect x="191" y="600" width="5" height="5" fill="#D6DCE8"/>
<rect x="221" y="600" width="5" height="5" fill="#D6DCE8"/>
<rect x="251" y="600" width="5" height="5" fill="#D6DCE8"/>
<rect x="281" y="600" width="5" height="5" fill="#D6DCE8"/>
<rect x="311" y="600" width="5" height="5" fill="#D6DCE8"/>
<rect x="341" y="600" width="5" height="5" fill="#D6DCE8"/>
<rect x="371" y="600" width="5" height="5" fill="#D6DCE8"/>
<rect x="401" y="600" width="5" height="5" fill="#D6DCE8"/>
<rect x="431" y="600" width="5" height="5" fill="#D6DCE8"/>
<rect x="461" y="600" width="5" height="5" fill="#D6DCE8"/>
</svg>
